<?xml version="1.0" encoding="UTF-8" standalone="no"?>
<!DOCTYPE svg PUBLIC "-//W3C//DTD SVG 1.1//EN" "http://www.w3.org/Graphics/SVG/1.1/DTD/svg11.dtd">
<svg version="1.1" xmlns="http://www.w3.org/2000/svg" xmlns:xlink="http://www.w3.org/1999/xlink" preserveAspectRatio="xMidYMid meet" viewBox="0 0 640 640" width="640" height="640"><defs><path d="M166.14 316.07C201.95 309.57 263.15 356.8 393.12 347.45C393.12 347.45 345.75 303.28 307.51 292.4C307.51 292.4 422.69 295.01 478 315.79C478 315.79 483.29 332.09 486.82 390.98C488.94 391.37 505.89 394.44 508 394.82C508 394.82 514.48 343.61 510.95 332.73C510.95 332.73 562.48 237.35 512 162.46C512 162.46 521.54 184.22 509.18 209.19C509.18 209.19 495.65 181.02 476.82 178.46C476.82 178.46 523.3 109.33 504.47 10.75C504.47 10.75 479.17 85 389.74 136.85C389.74 136.85 411.51 108.04 407.39 87.56C407.39 87.56 347.96 147.73 295.01 155.41C295.01 155.41 287.65 156.17 280.15 162.05C280.15 162.05 290.3 140.69 307.06 135.41C307.06 135.41 86.71 184.86 125.55 319.92C125.55 319.92 134.38 385.22 133.79 394.82C135.67 394.44 150.73 391.36 152.61 390.98C154.97 367.3 162.62 325.05 163.21 316.73C163.28 315.65 165.15 316.25 166.14 316.07Z" id="k4IOPTuMNQ"></path><path d="M139.96 467.2C141.03 479.5 149.74 551.19 227.63 548.05C311.16 544.67 313.65 473.51 313.68 475.2C313.68 464.34 335.38 463.89 337.44 475.2C337.44 475.23 344.11 545.65 423.57 547.99C509.18 550.51 509.44 468.26 509.44 468.26C510.13 468.11 515.69 466.88 516.39 466.72C516.39 466.72 522.12 420.12 516.24 416.3C501.79 406.91 412.79 388.03 345.68 427.55C345.68 427.55 328.83 442.13 306.18 428.3C283.53 414.47 182.99 386.59 125.14 413.65C125.14 413.65 126.94 455.19 131.58 463.15C132.95 465.51 139.83 465.7 139.96 467.2Z" id="cbJ4ezKV9"></path><path d="M325.8 623.15C325.8 623.15 371.2 620.55 387.79 578.87C386.25 577.68 378.53 571.75 364.65 561.07L410.33 596.07" id="a46scwYpfX"></path><path d="" id="a1I2HkTXRm"></path><path d="" id="a85wh3PQa"></path><path d="M302.94 468.37C303.45 440.65 285 424.83 221.75 418.36C148.91 410.9 148.77 420.93 152.61 465.14C158.49 532.78 213.18 535.21 230.57 535.2C290.05 535.19 302.66 483.26 302.94 468.37Z" id="a18uMNMj0e"></path><path d="M497.92 472.55C505.86 430.12 500.59 411.57 431.72 417C374.62 421.51 343.15 426.67 346.7 467.55C352.57 535.19 413.16 534.33 430.54 534.33C484.76 534.32 495.9 483.32 497.92 472.55Z" id="a32K89Kl9E"></path><path d="M274.2 472.21C274.2 487.15 262.34 499.27 247.73 499.27C233.11 499.27 221.25 487.15 221.25 472.21C221.25 457.28 233.11 445.16 247.73 445.16C262.34 445.16 274.2 457.28 274.2 472.21Z" id="a5cWxHqIDW"></path><path d="M4914.15 957.04C4914.15 963.94 4908.7 969.54 4901.98 969.54C4895.27 969.54 4889.81 963.94 4889.81 957.04C4889.81 950.15 4895.27 944.54 4901.98 944.54C4908.7 944.54 4914.15 950.15 4914.15 957.04Z" id="a7BYBx0648"></path><path d="M424.25 469.83C424.25 484.76 412.38 496.88 397.77 496.88C383.15 496.88 371.29 484.76 371.29 469.83C371.29 454.9 383.15 442.78 397.77 442.78C412.38 442.78 424.25 454.9 424.25 469.83Z" id="a8GKwBEOfo"></path><path d="M5622.29 584.37C5622.29 589.89 5618.03 594.37 5612.78 594.37C5607.54 594.37 5603.28 589.89 5603.28 584.37C5603.28 578.85 5607.54 574.37 5612.78 574.37C5618.03 574.37 5622.29 578.85 5622.29 584.37Z" id="egHOu3h0i"></path><path d="M275.97 453.68C275.97 460.99 270.04 466.92 262.73 466.92C255.42 466.92 249.49 460.99 249.49 453.68C249.49 446.37 255.42 440.44 262.73 440.44C270.04 440.44 275.97 446.37 275.97 453.68Z" id="bmvqaG83E"></path><path d="M3095.52 437.39C3095.52 442.91 3091.04 447.39 3085.52 447.39C3080 447.39 3075.52 442.91 3075.52 437.39C3075.52 431.87 3080 427.39 3085.52 427.39C3091.04 427.39 3095.52 431.87 3095.52 437.39Z" id="b1x3x43oDe"></path><path d="M2669.74 512.26C2669.74 516.12 2666.6 519.26 2662.74 519.26C2658.88 519.26 2655.74 516.12 2655.74 512.26C2655.74 508.4 2658.88 505.26 2662.74 505.26C2666.6 505.26 2669.74 508.4 2669.74 512.26Z" id="hr2LZney7"></path><path d="M423.57 450.15C423.57 457.46 417.63 463.39 410.33 463.39C403.02 463.39 397.09 457.46 397.09 450.15C397.09 442.84 403.02 436.91 410.33 436.91C417.63 436.91 423.57 442.84 423.57 450.15Z" id="avJWfLN4u"></path></defs><g><g><g><use xlink:href="#k4IOPTuMNQ" opacity="1" fill="#ffffff" fill-opacity="1"></use><g><use xlink:href="#k4IOPTuMNQ" opacity="1" fill-opacity="0" stroke="#000000" stroke-width="1" stroke-opacity="1"></use></g></g><g><use xlink:href="#cbJ4ezKV9" opacity="1" fill="#87ceeb" fill-opacity="1"></use><g><use xlink:href="#cbJ4ezKV9" opacity="1" fill-opacity="0" stroke="#87ceeb" stroke-width="1" stroke-opacity="1"></use></g></g><g><use xlink:href="#a46scwYpfX" opacity="1" fill="#ffffff" fill-opacity="1"></use><g><use xlink:href="#a46scwYpfX" opacity="1" fill-opacity="0" stroke="#000000" stroke-width="6" stroke-opacity="1"></use></g></g><g><use xlink:href="#a1I2HkTXRm" opacity="1" fill="#ffffff" fill-opacity="1"></use><g><use xlink:href="#a1I2HkTXRm" opacity="1" fill-opacity="0" stroke="#000000" stroke-width="1" stroke-opacity="1"></use></g></g><g><use xlink:href="#a85wh3PQa" opacity="1" fill="#ffffff" fill-opacity="1"></use><g><use xlink:href="#a85wh3PQa" opacity="1" fill-opacity="0" stroke="#000000" stroke-width="1" stroke-opacity="1"></use></g></g><g><use xlink:href="#a18uMNMj0e" opacity="1" fill="#ffffff" fill-opacity="1"></use><g><use xlink:href="#a18uMNMj0e" opacity="1" fill-opacity="0" stroke="#87ceeb" stroke-width="1" stroke-opacity="1"></use></g></g><g><use xlink:href="#a32K89Kl9E" opacity="1" fill="#ffffff" fill-opacity="1"></use><g><use xlink:href="#a32K89Kl9E" opacity="1" fill-opacity="0" stroke="#87ceeb" stroke-width="1" stroke-opacity="1"></use></g></g><g><use xlink:href="#a5cWxHqIDW" opacity="1" fill="#000000" fill-opacity="1"></use><g><use xlink:href="#a5cWxHqIDW" opacity="1" fill-opacity="0" stroke="#000000" stroke-width="1" stroke-opacity="1"></use></g></g><g><use xlink:href="#a7BYBx0648" opacity="1" fill="#ffffff" fill-opacity="1"></use><g><use xlink:href="#a7BYBx0648" opacity="1" fill-opacity="0" stroke="#ffffff" stroke-width="1" stroke-opacity="1"></use></g></g><g><use xlink:href="#a8GKwBEOfo" opacity="1" fill="#000000" fill-opacity="1"></use><g><use xlink:href="#a8GKwBEOfo" opacity="1" fill-opacity="0" stroke="#000000" stroke-width="1" stroke-opacity="1"></use></g></g><g><use xlink:href="#egHOu3h0i" opacity="1" fill="#ffffff" fill-opacity="1"></use><g><use xlink:href="#egHOu3h0i" opacity="1" fill-opacity="0" stroke="#ffffff" stroke-width="1" stroke-opacity="1"></use></g></g><g><use xlink:href="#bmvqaG83E" opacity="1" fill="#ffffff" fill-opacity="1"></use><g><use xlink:href="#bmvqaG83E" opacity="1" fill-opacity="0" stroke="#ffffff" stroke-width="1" stroke-opacity="1"></use></g></g><g><use xlink:href="#b1x3x43oDe" opacity="1" fill="#ffffff" fill-opacity="1"></use><g><use xlink:href="#b1x3x43oDe" opacity="1" fill-opacity="0" stroke="#ffffff" stroke-width="1" stroke-opacity="1"></use></g></g><g><use xlink:href="#hr2LZney7" opacity="1" fill="#ffffff" fill-opacity="1"></use><g><use xlink:href="#hr2LZney7" opacity="1" fill-opacity="0" stroke="#ffffff" stroke-width="1" stroke-opacity="1"></use></g></g><g><use xlink:href="#avJWfLN4u" opacity="1" fill="#ffffff" fill-opacity="1"></use><g><use xlink:href="#avJWfLN4u" opacity="1" fill-opacity="0" stroke="#ffffff" stroke-width="1" stroke-opacity="1"></use></g></g></g></g></svg>