<?xml version="1.0" encoding="utf-8"?>
<!-- Generator: Adobe Illustrator 16.0.0, SVG Export Plug-In . SVG Version: 6.00 Build 0)  -->
<!DOCTYPE svg PUBLIC "-//W3C//DTD SVG 1.1//EN" "http://www.w3.org/Graphics/SVG/1.1/DTD/svg11.dtd">
<svg version="1.1" id="Layer_1" xmlns="http://www.w3.org/2000/svg" xmlns:xlink="http://www.w3.org/1999/xlink" x="0px" y="0px"
	 width="612px" height="792px" viewBox="0 0 612 792" enable-background="new 0 0 612 792" xml:space="preserve">
<path fill="#FFFFFF" stroke="#000000" stroke-miterlimit="10" d="M132.5,334.5l28.625,2.875l1.25,13.875L166.5,353v-10.125l0.75-6
	c10.615-16.854,6.763-37.752,4.832-45.332c-0.474-1.86-0.832-2.918-0.832-2.918c1.25,11.625-0.875,13.625-0.875,13.625
	c-3-5.125-10.375-6.375-10.375-6.375c9.125-20.25-0.625-41.5-0.625-41.5c-5.125,16.75-18,22.375-18,22.375
	c3.875-6.375,1.875-12,1.875-12c-13.071,16.03-23.343,13.571-26.019,25.621c-0.037,0.166-0.002,0.644-0.106,0.504
	c-4-5.375,0.875-11.25,0.875-11.25c-24.5,15.875-26.715,44.059-18.375,56.75L100.25,353l4.875-1.375
	c0.121-4.61,1.774-7.69,0.385-14.269c-0.042-0.199-0.345-0.609-0.135-0.606c8.531,0.122,15.279,7.61,32.524,6.131
	c0.291-0.025,0.584-0.052,0.88-0.082c0.156-0.016,0.608,0.029,0.47-0.049c-4.324-2.471-4.985-6.285-12.121-7.702
	c-0.084-0.017-0.169-0.033-0.254-0.048"/>
<path fill="#FFFFFF" stroke="#000000" stroke-miterlimit="10" d="M127.313,334.438c0,0,32.813,2.75,32.813,3.375s1-0.438,1-0.438"/>
<path fill="#FFFFFF" stroke="#000000" stroke-miterlimit="10" d="M128.125,334.438c-3.563-0.188-2.625,0-2.625,0l1.629,0.611
	L128.125,334.438z"/>
<path fill="#FFFFFF" stroke="#000000" stroke-miterlimit="10" d="M96.2,366.583c0,0-1.167-5.667,0-9.333s26.361-3,28.972,3
	c0,0,4.611,4.667,8.028,0.167c1.925-2.536,10.16-4.052,17.833-4.021c5.945,0.024,11.552,0.977,13.625,3.105
	c4.75,4.875,3.25,2.625,3.25,2.625s1.949,1.75,0.225,5.875h-2.35c0,0,2.5,18-15,16.167s-17.666-14.875-21.833-14.521
	s-6.667,12.188-18.5,12.521S94.449,376,96.2,366.583z"/>
<path fill="#FFFFFF" stroke="#000000" stroke-miterlimit="10" d="M109.333,363.333c0,0-4.333,0.167-4.333,5.167
	s5.167,5.167,5.167,5.167s5.667,0.833,4.667-5.167c0,0-2.063,3.302-5.5,0.02S109.333,363.333,109.333,363.333z"/>
<path fill="#FFFFFF" stroke="#000000" stroke-miterlimit="10" d="M131.5,401.167c0,0,11-0.333,13-8.5L138,388.5l13.333,8.5"/>
<path fill="#FFFFFF" stroke="#000000" stroke-miterlimit="10" d="M149.667,365c0,0,7.167-0.542,7.667,4.646s-3.5,7.188-7,6.521
	s-4-3.167-4-3.167S152,370.333,149.667,365z"/>
<path fill="#FFFFFF" stroke="#000000" stroke-miterlimit="10" d="M353.002,324.668c0.043-0.563,1.103-0.249,1.664-0.342
	c20.283-3.385,54.956,21.206,128.584,16.34c0,0-26.833-23-48.5-28.667c0,0,65.252,1.358,96.585,12.18c0,0,3,8.489,5,39.155l12,2
	c0,0,3.667-26.667,1.667-32.333c0,0,29.193-49.667,0.597-88.667c0,0,5.403,11.333-1.597,24.333c0,0-7.668-14.667-18.334-16
	c0,0,26.334-35.999,15.667-87.332c0,0-14.333,38.661-65,65.661c0,0,12.333-15,10-25.667c0,0-33.667,31.333-63.667,35.333
	c0,0-4.168,0.397-8.418,3.46c0,0,5.75-11.125,15.25-13.875c0,0-124.834,25.75-102.833,96.083c0,0,5.002,34.004,4.668,39.002
	l10.666-2.002C348.335,351,352.669,329.003,353.002,324.668z"/>
<path fill="#FFFFFF" stroke="#000000" stroke-miterlimit="10" d="M335.083,404.042c0.777,1.337,4.676,1.443,4.75,2.292
	c0.606,6.968,5.542,47.585,49.667,45.802c47.318-1.912,48.731-42.223,48.75-41.265c0-6.156,12.293-6.412,13.459,0
	c0,0.014,3.78,39.906,48.791,41.232c48.5,1.429,48.646-45.166,48.646-45.166l3.938-0.87c0,0,3.248-26.401-0.085-28.567
	c-8.186-5.321-58.607-16.012-96.623,6.375c0,0-9.543,8.257-22.375,0.423S364.209,360.667,331.438,376
	C331.438,376,332.459,399.53,335.083,404.042z"/>
<path fill="#FFFFFF" stroke="#000000" stroke-width="3" stroke-miterlimit="10" d="M445.111,506.667c0,0,25.722-1.476,35.12-25.085
	L467.122,471.5L493,491.327"/>
<path fill="#FFFFFF" stroke="#000000" stroke-miterlimit="10" d="M347,381"/>
<path fill="#FFFFFF" stroke="#000000" stroke-miterlimit="10" d="M115.811,454.461c-8.563-3.291-83.865-31.151-81.279,5.691
	c2.477,35.288,24.421,44.07,22.802,43.35c-1.424-0.634,44.668,21.873,63.448-20.908C120.781,482.594,129.25,459.625,115.811,454.461
	z"/>
<path fill="#FFFFFF" stroke="#000000" stroke-miterlimit="10" d="M210.413,448.799c-4.626-5.6-54.776-12.795-79.102,6.432
	c-4.98,3.936-3.747,9.803-3.231,17.52c2.471,36.947,40.543,36.651,40.543,36.651s29.009,3.368,41.624-29.568
	C210.247,479.833,216.913,456.666,210.413,448.799z"/>
<path fill="#FFFFFF" stroke="#000000" stroke-miterlimit="10" d="M388.516,404.109"/>
<path fill="#FFFFFF" stroke="#000000" stroke-miterlimit="10" d="M143.11,469.766c0,0-0.947,12.102,12.76,12.234
	c13.813,0.134,13.834-8.604,13.838-10.625c0.004-1.969,1.004-13.375-13.061-13.375C142.45,458,143.11,469.766,143.11,469.766z"/>
<path fill="#FFFFFF" stroke="#000000" stroke-miterlimit="10" d="M78.64,469.874c0,0-0.947,12.102,12.76,12.234
	c13.813,0.134,13.834-8.604,13.838-10.625c0.004-1.969,1.004-13.375-13.061-13.375C77.98,458.108,78.64,469.874,78.64,469.874z"/>
<path fill="#FFFFFF" stroke="#000000" stroke-miterlimit="10" d="M89.801,468.011c0,0-0.355,5.045,4.797,5.098
	c5.183,0.059,5.192-3.586,5.192-4.426c0.001-0.82,0.375-5.573-4.904-5.573C89.554,463.109,89.801,468.011,89.801,468.011z"/>
<path fill="#FFFFFF" stroke="#000000" stroke-miterlimit="10" d="M153.85,467.902c0,0-0.355,5.045,4.797,5.098
	c5.183,0.059,5.192-3.586,5.192-4.426c0.001-0.82,0.375-5.573-4.904-5.573C153.603,463.001,153.85,467.902,153.85,467.902z"/>
<path fill="#FFFFFF" stroke="#000000" stroke-miterlimit="10" d="M391.162,444.859c33.697-0.008,40.845-29.425,41-37.858
	c0.289-15.708-10.162-24.667-45.995-28.335c-41.263-4.223-41.343,1.457-39.167,26.501
	C350.328,443.487,381.313,444.862,391.162,444.859z"/>
<path fill="#FFFFFF" stroke="#000000" stroke-miterlimit="10" d="M504.824,444.834c30.715-0.007,37.024-28.898,38.167-34.999
	c4.502-24.036,1.515-34.544-37.5-31.467c-32.35,2.552-50.179,5.474-48.167,28.633C460.652,445.321,494.975,444.837,504.824,444.834z
	"/>
</svg>
