<svg xmlns="http://www.w3.org/2000/svg" xmlns:xlink="http://www.w3.org/1999/xlink" viewBox="0 0 565.88 372"><defs><style>.cls-1{isolation:isolate;}.cls-2{fill:url(#linear-gradient);}.cls-3{fill:#dce7f2;}.cls-4{fill:#a7c0f6;}.cls-5{opacity:0.8;}.cls-13,.cls-14,.cls-24,.cls-35,.cls-37,.cls-44,.cls-45,.cls-5,.cls-79,.cls-86,.cls-91,.cls-93{mix-blend-mode:multiply;}.cls-6{fill:#e4e8f4;}.cls-7{fill:#b7c9f1;}.cls-8{fill:url(#linear-gradient-2);}.cls-9{fill:url(#linear-gradient-3);}.cls-10,.cls-42{fill:#5d92d9;}.cls-10{opacity:0.43;}.cls-11{fill:url(#linear-gradient-4);}.cls-12{fill:url(#linear-gradient-5);}.cls-13,.cls-16,.cls-35,.cls-45{fill:#8686fe;}.cls-13,.cls-46{opacity:0.5;}.cls-14,.cls-55{fill:#0c4296;}.cls-15{fill:#000a29;}.cls-16,.cls-44{opacity:0.4;}.cls-16,.cls-46{mix-blend-mode:screen;}.cls-17{fill:#f9f9f9;}.cls-18{opacity:0.3;}.cls-19{fill:url(#linear-gradient-6);}.cls-20{fill:#4294ff;}.cls-21{mix-blend-mode:color-dodge;}.cls-22{fill:#ada3fb;}.cls-23{fill:#ff3a7f;}.cls-25{fill:#d7ddff;}.cls-26{fill:#7d8aef;}.cls-27{fill:url(#linear-gradient-7);}.cls-28{fill:url(#linear-gradient-8);}.cls-29{fill:url(#linear-gradient-9);}.cls-30{fill:url(#linear-gradient-10);}.cls-31{fill:url(#linear-gradient-11);}.cls-32{fill:url(#linear-gradient-12);}.cls-33{fill:#56a4f7;}.cls-34{fill:#1fc3ff;}.cls-35,.cls-37{opacity:0.2;}.cls-36{fill:#359efc;}.cls-37{fill:#c8c0bc;}.cls-38{fill:url(#linear-gradient-13);}.cls-39{fill:url(#linear-gradient-14);}.cls-40{fill:url(#linear-gradient-15);}.cls-41{fill:url(#linear-gradient-16);}.cls-43,.cls-46{fill:#a8d1ff;}.cls-45{opacity:0.41;}.cls-47{fill:url(#linear-gradient-17);}.cls-48{fill:#0c337d;}.cls-49{fill:#ffad97;}.cls-50{fill:url(#linear-gradient-18);}.cls-51{fill:url(#linear-gradient-19);}.cls-52{fill:url(#linear-gradient-20);}.cls-53{fill:url(#linear-gradient-21);}.cls-54{fill:#444199;}.cls-56{fill:#4e89f1;}.cls-57{fill:url(#linear-gradient-22);}.cls-58{fill:url(#linear-gradient-23);}.cls-59{fill:#192152;}.cls-60{fill:#6eb1ff;}.cls-61{opacity:0.81;fill:url(#linear-gradient-24);}.cls-62{fill:url(#linear-gradient-25);}.cls-63{fill:#fff;}.cls-64{fill:#ff528e;}.cls-65{fill:#ffd663;}.cls-66{fill:#33eb7d;}.cls-67{fill:#6491fb;}.cls-68{fill:#94f2b5;}.cls-69{fill:#f99;}.cls-70{fill:#a69cfb;}.cls-71{fill:#004680;opacity:0.1;}.cls-72{fill:url(#linear-gradient-26);}.cls-73{fill:url(#linear-gradient-27);}.cls-74{fill:url(#linear-gradient-28);}.cls-75{fill:#143f58;}.cls-76{fill:url(#linear-gradient-29);}.cls-77{fill:url(#linear-gradient-30);}.cls-78{fill:#b5c9ff;}.cls-79,.cls-91{opacity:0.6;}.cls-80{fill:#ef4b00;}.cls-81{fill:#52f995;}.cls-82{fill:#ffc114;}.cls-83{fill:#f2fbfd;}.cls-84{fill:#ff2672;}.cls-85{fill:#ff9361;}.cls-86{fill:#ff7e00;opacity:0.3;}.cls-87{fill:url(#linear-gradient-31);}.cls-88{fill:url(#linear-gradient-32);}.cls-89{fill:url(#linear-gradient-33);}.cls-90{fill:url(#linear-gradient-34);}.cls-91{fill:#a5aaa8;}.cls-92{fill:url(#linear-gradient-35);}.cls-93{opacity:0.85;}.cls-94{fill:#fdfefd;}.cls-95{fill:#9261ff;}.cls-96{fill:#b28fff;}.cls-97{fill:url(#linear-gradient-36);}.cls-98{fill:url(#linear-gradient-37);}.cls-99{fill:url(#linear-gradient-38);}.cls-100{fill:#a4fdd4;}.cls-101{fill:#ffb8b8;}.cls-102{fill:#a0bbfb;}.cls-103{fill:#f9e4a0;opacity:0.4;}</style><linearGradient id="linear-gradient" x1="284.2" y1="-88.12" x2="325.6" y2="-88.12" gradientTransform="translate(255.67 -55.68) rotate(45.17)" gradientUnits="userSpaceOnUse"><stop offset="0" stop-color="#e5edf6"/><stop offset="1" stop-color="#e6f0fa"/></linearGradient><linearGradient id="linear-gradient-2" x1="193.35" y1="387.92" x2="445.6" y2="387.92" gradientUnits="userSpaceOnUse"><stop offset="0" stop-color="#a1c8f4"/><stop offset="1" stop-color="#dfedfa"/></linearGradient><linearGradient id="linear-gradient-3" x1="193.34" y1="396.85" x2="445.6" y2="396.85" gradientUnits="userSpaceOnUse"><stop offset="0" stop-color="#4c9cf4"/><stop offset="1" stop-color="#acd4fa"/></linearGradient><linearGradient id="linear-gradient-4" x1="147.2" y1="264.11" x2="326.45" y2="322.37" xlink:href="#linear-gradient-2"/><linearGradient id="linear-gradient-5" x1="63.74" y1="359.76" x2="223.02" y2="294.67" xlink:href="#linear-gradient-3"/><linearGradient id="linear-gradient-6" x1="358.86" y1="202.7" x2="329.54" y2="231.5" xlink:href="#linear-gradient-3"/><linearGradient id="linear-gradient-7" x1="450.97" y1="80.46" x2="464.05" y2="80.46" gradientUnits="userSpaceOnUse"><stop offset="0" stop-color="#7ab4f4"/><stop offset="1" stop-color="#dfedfa"/></linearGradient><linearGradient id="linear-gradient-8" x1="452.03" y1="67.53" x2="462.99" y2="67.53" xlink:href="#linear-gradient-7"/><linearGradient id="linear-gradient-9" x1="454.34" y1="55.38" x2="460.68" y2="55.38" xlink:href="#linear-gradient-7"/><linearGradient id="linear-gradient-10" x1="292.57" y1="136.26" x2="563.6" y2="136.26" gradientUnits="userSpaceOnUse"><stop offset="1" stop-color="#7ab4f4"/><stop offset="1" stop-color="#dfedfa"/></linearGradient><linearGradient id="linear-gradient-11" x1="276.37" y1="136.26" x2="584.37" y2="136.26" xlink:href="#linear-gradient-10"/><linearGradient id="linear-gradient-12" x1="476.3" y1="115.26" x2="497.87" y2="115.26" xlink:href="#linear-gradient-10"/><linearGradient id="linear-gradient-13" x1="493.78" y1="277.66" x2="512.84" y2="278.1" xlink:href="#linear-gradient-7"/><linearGradient id="linear-gradient-14" x1="465.49" y1="212.63" x2="468.77" y2="212.63" xlink:href="#linear-gradient-10"/><linearGradient id="linear-gradient-15" x1="446.18" y1="212.63" x2="449.47" y2="212.63" xlink:href="#linear-gradient-10"/><linearGradient id="linear-gradient-16" x1="432.96" y1="333.57" x2="483.38" y2="333.57" gradientUnits="userSpaceOnUse"><stop offset="0" stop-color="#ccddf0"/><stop offset="1" stop-color="#d1e1f0"/></linearGradient><linearGradient id="linear-gradient-17" x1="504.59" y1="85.97" x2="532.9" y2="85.97" xlink:href="#linear-gradient-7"/><linearGradient id="linear-gradient-18" x1="141.23" y1="405.39" x2="151.42" y2="405.39" gradientTransform="matrix(-1, 0, 0, 1, 365.84, 0)" gradientUnits="userSpaceOnUse"><stop offset="0" stop-color="#3d342b"/><stop offset="1" stop-color="#291c17"/></linearGradient><linearGradient id="linear-gradient-19" x1="163.52" y1="404.34" x2="173.71" y2="404.34" xlink:href="#linear-gradient-18"/><linearGradient id="linear-gradient-20" x1="192.18" y1="369.85" x2="208.74" y2="369.85" xlink:href="#linear-gradient-16"/><linearGradient id="linear-gradient-21" x1="201.02" y1="368.87" x2="220.73" y2="368.87" gradientTransform="matrix(1, 0, 0, 1, 0, 0)" xlink:href="#linear-gradient"/><linearGradient id="linear-gradient-22" x1="443.95" y1="405.71" x2="456.28" y2="405.71" gradientTransform="matrix(1, 0, 0, 1, 0, 0)" xlink:href="#linear-gradient-18"/><linearGradient id="linear-gradient-23" x1="698.29" y1="194.69" x2="710.15" y2="194.69" gradientTransform="translate(-244.56 464.58) rotate(-20.14)" xlink:href="#linear-gradient-18"/><linearGradient id="linear-gradient-24" x1="330.28" y1="252.55" x2="435.31" y2="252.55" xlink:href="#linear-gradient-10"/><linearGradient id="linear-gradient-25" x1="330.28" y1="223.11" x2="435.31" y2="223.11" xlink:href="#linear-gradient-10"/><linearGradient id="linear-gradient-26" x1="74.91" y1="404.94" x2="88.5" y2="404.94" gradientTransform="matrix(-1, 0, 0, 1, 405.47, 0)" xlink:href="#linear-gradient-18"/><linearGradient id="linear-gradient-27" x1="95.02" y1="404.94" x2="108.61" y2="404.94" gradientTransform="matrix(-1, 0, 0, 1, 405.47, 0)" xlink:href="#linear-gradient-18"/><linearGradient id="linear-gradient-28" x1="314.77" y1="309.08" x2="344.14" y2="309.08" xlink:href="#linear-gradient-16"/><linearGradient id="linear-gradient-29" x1="298.62" y1="316.29" x2="324.07" y2="316.29" gradientTransform="matrix(1, 0, 0, 1, 0, 0)" xlink:href="#linear-gradient"/><linearGradient id="linear-gradient-30" x1="294.31" y1="319.6" x2="307.4" y2="319.6" xlink:href="#linear-gradient-16"/><linearGradient id="linear-gradient-31" x1="55.01" y1="321.91" x2="58.33" y2="321.91" gradientTransform="matrix(1, 0, 0, 1, 0, 0)" xlink:href="#linear-gradient"/><linearGradient id="linear-gradient-32" x1="116.88" y1="321.91" x2="120.2" y2="321.91" gradientTransform="matrix(1, 0, 0, 1, 0, 0)" xlink:href="#linear-gradient"/><linearGradient id="linear-gradient-33" x1="116.88" y1="329.66" x2="120.2" y2="329.66" xlink:href="#linear-gradient-16"/><linearGradient id="linear-gradient-34" x1="55.01" y1="329.66" x2="58.33" y2="329.66" xlink:href="#linear-gradient-16"/><linearGradient id="linear-gradient-35" x1="57.42" y1="338.33" x2="117.45" y2="338.33" gradientTransform="matrix(1, 0, 0, 1, 0, 0)" xlink:href="#linear-gradient"/><linearGradient id="linear-gradient-36" x1="-72.21" y1="406.37" x2="-59.21" y2="406.37" gradientTransform="matrix(-1, 0, 0, 1, 100.4, 0)" xlink:href="#linear-gradient-18"/><linearGradient id="linear-gradient-37" x1="212.14" y1="180.85" x2="223.85" y2="180.85" gradientTransform="matrix(-0.88, -0.47, -0.47, 0.88, 409.12, 348.55)" xlink:href="#linear-gradient-18"/><linearGradient id="linear-gradient-38" x1="54.81" y1="92.03" x2="96.2" y2="92.03" gradientTransform="translate(72.15 -10.58) rotate(13.82)" xlink:href="#linear-gradient"/></defs><title>header_illustration</title><g class="cls-1"><g id="Layer_1" data-name="Layer 1"><g id="cloud"><path class="cls-2" d="M549.64,90.58A13.87,13.87,0,0,0,537,87.4a7.53,7.53,0,0,0-.56-.57,9.59,9.59,0,0,0-13.54.91,10.94,10.94,0,0,0-1.3,1.78c-2.89-2.3-7.3-1.79-10.07,1.24s-2.88,7.83,0,10.45a6.82,6.82,0,0,0,6,1.58,7.35,7.35,0,0,0,1.71,2.35,7.93,7.93,0,0,0,7.75,1.57,13.74,13.74,0,0,0,3.45,5,14.29,14.29,0,0,0,19.27-21.09Z" transform="translate(-29.13 -52.43)"/><path class="cls-3" d="M552.48,97.42a.35.35,0,0,0-.7,0,12.33,12.33,0,0,1-3.26,8,12.13,12.13,0,0,1-17.13,1,11.7,11.7,0,0,1-2.85-4,.34.34,0,0,0-.41-.2,6.79,6.79,0,0,1-6.37-1.44A6.44,6.44,0,0,1,520.4,99a.34.34,0,0,0-.37-.19,5.89,5.89,0,0,1-4.87-1.4,6.13,6.13,0,0,1-1.24-7.09.15.15,0,0,0-.23-.18C510.36,93,510,97.9,513,100.58a6.34,6.34,0,0,0,5.31,1.52.36.36,0,0,1,.37.19,6.84,6.84,0,0,0,1.49,2,7.37,7.37,0,0,0,7,1.55.35.35,0,0,1,.41.2,12.77,12.77,0,0,0,3.11,4.36,13.19,13.19,0,0,0,18.62-1.07A13.41,13.41,0,0,0,552.48,97.42Z" transform="translate(-29.13 -52.43)"/></g><path class="cls-4" d="M199.45,187.38l-1,0h-.24a.62.62,0,0,0-.09,1.23h1.35a.63.63,0,0,0,.33-.09.67.67,0,0,0,.26.1h1.36a.62.62,0,0,0,0-1.24l-1.27,0h0a.56.56,0,0,0-.31.09.65.65,0,0,0-.34-.1Zm-6.27.23h0l-1,.08-.3,0a.63.63,0,0,0-.57.67.62.62,0,0,0,.6.57l1.38-.11a.63.63,0,0,0-.11-1.24Zm-6.23.68h-.09c-.33,0-.66.1-1,.15l-.27,0a.62.62,0,0,0-.51.72.61.61,0,0,0,.6.52h0l1.35-.21a.61.61,0,0,0,.5-.7.61.61,0,0,0-.61-.53Zm-6.18,1.13h-.13l-.94.22-.29.07a.61.61,0,0,0-.46.74.64.64,0,0,0,.61.49h.05l1.33-.31a.62.62,0,0,0-.17-1.22ZM174.71,191a.63.63,0,0,0-.19,0l-.93.29-.27.09a.62.62,0,0,0,.19,1.21h.09l1.3-.4a.63.63,0,0,0-.19-1.22Zm-6,2a.6.6,0,0,0-.22,0l-1.07.42-.11.05a.63.63,0,0,0-.34.81.61.61,0,0,0,.57.39h.14l1.18-.47.07,0a.63.63,0,0,0,.36-.81.61.61,0,0,0-.58-.4ZM163,195.46a.58.58,0,0,0-.26.06l-1.14.55a.61.61,0,0,0-.28.83.62.62,0,0,0,.56.35.48.48,0,0,0,.2,0l1.24-.59a.61.61,0,0,0,.25-.8.64.64,0,0,0-.57-.36Zm-5.57,2.86a.68.68,0,0,0-.31.08L156,199a.63.63,0,0,0-.22.85.61.61,0,0,0,.54.31.58.58,0,0,0,.26-.06l1.19-.68a.63.63,0,0,0,.18-.81.64.64,0,0,0-.54-.32Zm-5.36,3.27a.59.59,0,0,0-.34.1l-1.06.7a.63.63,0,0,0-.16.87.62.62,0,0,0,.52.27.59.59,0,0,0,.29-.07l1.16-.78a.62.62,0,0,0-.41-1.09Zm-5.11,3.64a.67.67,0,0,0-.38.13l-.26.21-.74.56a.62.62,0,0,0,.4,1.11.59.59,0,0,0,.34-.1l1.08-.84a.63.63,0,0,0-.44-1.07Zm-4.83,4a.59.59,0,0,0-.41.16l-.94.84a.64.64,0,0,0,0,.89.62.62,0,0,0,.45.2.63.63,0,0,0,.35-.11l1-.94a.62.62,0,0,0-.46-1Zm-4.53,4.34a.59.59,0,0,0-.44.19c-.3.3-.59.61-.87.91a.62.62,0,0,0,0,.88.65.65,0,0,0,.43.17.68.68,0,0,0,.39-.13l1-1a.62.62,0,0,0-.49-1Zm-4.2,4.66a.6.6,0,0,0-.47.22l-.81,1a.62.62,0,0,0,.92.84c.29-.35.58-.71.88-1.06a.63.63,0,0,0-.11-.83.68.68,0,0,0-.41-.14Zm-3.85,4.94a.64.64,0,0,0-.51.26l-.73,1a.64.64,0,0,0,.16.87.66.66,0,0,0,.35.11.63.63,0,0,0,.46-.2c.26-.38.53-.75.79-1.12a.62.62,0,0,0-.16-.84.6.6,0,0,0-.36-.12ZM126,228.4a.63.63,0,0,0-.53.3c-.19.31-.38.62-.56.93l-.09.15a.62.62,0,0,0,.21.85.65.65,0,0,0,.32.09.63.63,0,0,0,.5-.25l.69-1.14a.62.62,0,0,0-.54-.93ZM123,233.86a.61.61,0,0,0-.55.33l-.58,1.13a.62.62,0,0,0,.28.83.58.58,0,0,0,.28.07.6.6,0,0,0,.52-.28c.21-.41.42-.83.63-1.23a.63.63,0,0,0-.29-.78.62.62,0,0,0-.29-.07Zm-2.69,5.67a.62.62,0,0,0-.57.37c-.17.39-.33.78-.49,1.17a.62.62,0,0,0,.34.81.69.69,0,0,0,.24.05.66.66,0,0,0,.54-.31c.17-.43.35-.86.53-1.28a.61.61,0,0,0-.34-.76.56.56,0,0,0-.25-.05ZM118,245.37a.62.62,0,0,0-.58.42c-.14.4-.28.8-.41,1.2a.63.63,0,0,0,.4.79.69.69,0,0,0,.2,0,.62.62,0,0,0,.57-.39c.14-.44.29-.87.44-1.31a.63.63,0,0,0-.41-.7.52.52,0,0,0-.21,0Zm-1.83,6a.63.63,0,0,0-.6.46c-.11.4-.21.81-.32,1.22a.62.62,0,0,0,.45.75.41.41,0,0,0,.15,0,.62.62,0,0,0,.61-.47.19.19,0,0,1,0-.07c.1-.41.2-.81.31-1.22a.61.61,0,0,0-.46-.67.41.41,0,0,0-.16,0Zm-1.38,6.12a.62.62,0,0,0-.62.5l0,.21c-.06.34-.13.69-.19,1a.62.62,0,0,0,.51.71h.11a.62.62,0,0,0,.6-.47c0-.09,0-.19,0-.28l0-.16c0-.31.11-.61.17-.91a.63.63,0,0,0-.51-.65Zm-1,6.19a.62.62,0,0,0-.61.56l0,.22c0,.35-.08.69-.11,1a.61.61,0,0,0,.56.68h.06a.62.62,0,0,0,.61-.53l.15-1.37a.61.61,0,0,0-.55-.59Zm-.48,6.27a.62.62,0,0,0-.62.59l0,.41,0,.84a.62.62,0,0,0,.6.64h0a.63.63,0,0,0,.62-.54c0-.46,0-.92,0-1.38a.61.61,0,0,0-.6-.56Zm0,6.26h0a.63.63,0,0,0-.61.64c0,.43,0,.85,0,1.27a.63.63,0,0,0,.63.59h0a.61.61,0,0,0,.59-.57c0-.47,0-.93-.06-1.4a.62.62,0,0,0-.61-.53Zm.41,6.26h-.07a.62.62,0,0,0-.55.69c0,.42.09.83.14,1.25a.63.63,0,0,0,.62.55H114a.63.63,0,0,0,.54-.62l-.15-1.35a.62.62,0,0,0-.61-.52Zm.87,6.22h-.11a.62.62,0,0,0-.5.73c.07.41.14.82.22,1.24a.64.64,0,0,0,.62.5h.11a.62.62,0,0,0,.51-.65c-.09-.45-.17-.91-.25-1.36a.61.61,0,0,0-.6-.45Zm1.32,6.13a.44.44,0,0,0-.16,0,.62.62,0,0,0-.45.75c.11.41.21.82.33,1.23a.63.63,0,0,0,.6.46l.17,0a.62.62,0,0,0,.45-.67l-.36-1.36a.61.61,0,0,0-.58-.41Zm1.77,6a.64.64,0,0,0-.2,0,.62.62,0,0,0-.4.79c.13.4.27.79.41,1.19a.62.62,0,0,0,.59.42.52.52,0,0,0,.21,0,.61.61,0,0,0,.4-.7c-.15-.45-.31-.89-.45-1.34a.63.63,0,0,0-.56-.35Zm2.2,5.87a.69.69,0,0,0-.24,0,.63.63,0,0,0-.34.82l.07.16.42,1a.62.62,0,0,0,.57.37.56.56,0,0,0,.25-.05.62.62,0,0,0,.34-.78c-.18-.42-.36-.84-.53-1.26a.66.66,0,0,0-.54-.31Zm2.62,5.69a.6.6,0,0,0-.28.08.62.62,0,0,0-.28.83l.58,1.13a.62.62,0,0,0,.55.33.59.59,0,0,0,.29-.07.63.63,0,0,0,.26-.84l0-.07-.58-1.12a.63.63,0,0,0-.51-.27Zm3,5.5a.63.63,0,0,0-.54.94c.22.37.43.72.66,1.08a.62.62,0,0,0,.53.29.57.57,0,0,0,.33-.09.61.61,0,0,0,.22-.81c-.24-.39-.48-.78-.71-1.17a.65.65,0,0,0-.49-.24Zm3.42,5.25a.59.59,0,0,0-.35.12.62.62,0,0,0-.15.87c.24.35.49.69.73,1a.6.6,0,0,0,.5.25.63.63,0,0,0,.55-.93c-.28-.37-.55-.76-.82-1.14a.63.63,0,0,0-.46-.2Zm3.8,5a.57.57,0,0,0-.39.14.62.62,0,0,0-.09.88l.81,1a.62.62,0,0,0,.47.21.64.64,0,0,0,.41-.14.62.62,0,0,0,.11-.82c-.29-.35-.59-.7-.87-1a.61.61,0,0,0-.45-.19Zm4.15,4.7a.65.65,0,0,0-.43.17.62.62,0,0,0,0,.88c.29.31.58.62.88.92a.63.63,0,0,0,1-.81c-.33-.33-.66-.67-1-1a.6.6,0,0,0-.4-.15Zm4.47,4.39a.62.62,0,0,0-.41,1.08c.3.29.62.57.94.85a.66.66,0,0,0,.42.15.6.6,0,0,0,.46-.21.61.61,0,0,0,0-.82l-1-.92a.58.58,0,0,0-.38-.13Zm4.79,4.06a.63.63,0,0,0-.38,1.12l1,.77a.64.64,0,0,0,.38.12.66.66,0,0,0,.5-.25.61.61,0,0,0-.06-.81l-1.1-.85a.59.59,0,0,0-.34-.1Zm5.07,3.7a.59.59,0,0,0-.51.27.61.61,0,0,0,.16.86l1,.71a.67.67,0,0,0,.34.1.63.63,0,0,0,.53-.29.61.61,0,0,0-.14-.82l-1.15-.76a.55.55,0,0,0-.28-.07Zm5.33,3.32a.64.64,0,0,0-.55.31.62.62,0,0,0,.23.85l.21.12c.29.17.59.35.89.51a.63.63,0,0,0,.3.07.62.62,0,0,0,.34-1.14l-1.2-.68a.57.57,0,0,0-.22,0Zm5.54,2.92a.64.64,0,0,0-.56.36.62.62,0,0,0,.3.83l.25.12c.29.14.58.29.88.42a.66.66,0,0,0,.27.06.62.62,0,0,0,.56-.36.63.63,0,0,0-.3-.83l-.14-.06c-.36-.16-.72-.34-1.07-.51a1.08,1.08,0,0,0-.19,0Zm5.75,2.51a.62.62,0,0,0-.58.4.6.6,0,0,0,.35.8l1.18.47a.57.57,0,0,0,.22,0,.62.62,0,0,0,.28-1.18l-1.32-.52Zm5.92,2.09a.62.62,0,0,0-.18,1.22l1.19.37.18,0a.62.62,0,0,0,.6-.44.61.61,0,0,0-.38-.76l-1.3-.4Zm6.05,1.65a.62.62,0,0,0-.14,1.22c.41.1.82.2,1.24.28l.13,0a.62.62,0,0,0,.61-.49.64.64,0,0,0-.39-.72l-1.4-.31Zm6.16,1.19a.62.62,0,0,0-.1,1.24l1.26.18h.08a.63.63,0,0,0,.62-.54.62.62,0,0,0-.45-.68l-1.4-.21Zm6.19.75a.62.62,0,0,0,0,1.24l1.25.1h0a.63.63,0,0,0,.63-.58.62.62,0,0,0-.53-.66l-1.38-.1Zm6.23.3a.62.62,0,0,0-.55.61.64.64,0,0,0,.62.63h1.26a.62.62,0,0,0,.62-.62.63.63,0,0,0-.55-.62h-1.4Zm7.59-.24h-.13l-1.23.09a.61.61,0,0,0-.51.64.62.62,0,0,0,.62.59h0l1.26-.08a.63.63,0,0,0,.58-.67.62.62,0,0,0-.63-.57Zm6.25-.7h-.1l-.28,0-1,.14a.63.63,0,0,0,.16,1.23h.08l.26,0,1-.13a.63.63,0,0,0,.53-.71.62.62,0,0,0-.61-.53Zm6.16-1.15a.34.34,0,0,0-.14,0L217,358a.6.6,0,0,0-.41.71.62.62,0,0,0,.61.49h.13l.09,0c.38-.08.76-.15,1.14-.24a.63.63,0,0,0,.47-.75.61.61,0,0,0-.6-.48Zm6.06-1.6h-.13l-1.32.39a.63.63,0,0,0,.25,1.2l.17,0,.12,0,1.09-.32a.62.62,0,0,0,.42-.77.63.63,0,0,0-.6-.45Zm5.94-2a.57.57,0,0,0-.18,0l-1.3.49a.61.61,0,0,0-.28.75.62.62,0,0,0,.58.42.85.85,0,0,0,.22,0l1.18-.45a.61.61,0,0,0,.36-.8.61.61,0,0,0-.58-.4Zm5.77-2.48a.79.79,0,0,0-.2,0l-1.26.58a.64.64,0,0,0-.25.8.62.62,0,0,0,.56.36.53.53,0,0,0,.27-.06l.17-.07,1-.45a.63.63,0,0,0,.29-.84.61.61,0,0,0-.55-.36Zm5.57-2.88a.69.69,0,0,0-.24.05c-.4.23-.81.46-1.23.68a.63.63,0,0,0-.18.81.61.61,0,0,0,.55.32.59.59,0,0,0,.29-.07l1.11-.62a.62.62,0,0,0,.23-.85.61.61,0,0,0-.53-.32Zm5.34-3.27a.67.67,0,0,0-.28.06l-1.15.76a.62.62,0,0,0,.38,1.11.59.59,0,0,0,.34-.1l1.06-.69a.62.62,0,0,0,.18-.86.65.65,0,0,0-.53-.28Zm5.09-3.66a.62.62,0,0,0-.32.09c-.36.28-.72.56-1.09.83a.63.63,0,0,0,.42,1.09.58.58,0,0,0,.37-.13l1-.73.05,0a.6.6,0,0,0,.12-.86.65.65,0,0,0-.51-.25Zm4.82-4a.56.56,0,0,0-.35.11l-1,.92a.6.6,0,0,0,0,.83.59.59,0,0,0,.47.22.61.61,0,0,0,.41-.16c.25-.22.49-.45.75-.67l.18-.16a.62.62,0,0,0,.06-.88.64.64,0,0,0-.47-.21Zm4.51-4.36a.56.56,0,0,0-.38.14c-.33.33-.65.67-1,1a.63.63,0,0,0,0,.83.64.64,0,0,0,.44.18.66.66,0,0,0,.45-.18c.29-.3.59-.6.87-.9a.64.64,0,0,0,0-.89.61.61,0,0,0-.44-.17Zm4.19-4.67a.59.59,0,0,0-.45.2l-.89,1.05a.62.62,0,0,0,.12.8.63.63,0,0,0,.41.15.6.6,0,0,0,.47-.22c.28-.31.55-.63.82-1a.63.63,0,0,0-.08-.88.67.67,0,0,0-.4-.14Zm3.84-5a.62.62,0,0,0-.47.21l-.81,1.11a.62.62,0,0,0,.16.81.64.64,0,0,0,.88-.13l.75-1a.61.61,0,0,0-.51-1Zm3.47-5.24a.64.64,0,0,0-.51.26c-.24.39-.48.79-.73,1.18a.62.62,0,0,0,.24.78.58.58,0,0,0,.33.1.62.62,0,0,0,.53-.29c.22-.36.45-.72.66-1.08a.61.61,0,0,0-.2-.85.55.55,0,0,0-.32-.1Zm3.07-5.46a.62.62,0,0,0-.51.26c-.21.42-.44.84-.66,1.25a.64.64,0,0,0,.29.77.66.66,0,0,0,.3.07.62.62,0,0,0,.55-.33c.2-.37.39-.74.58-1.12a.62.62,0,0,0-.26-.84.72.72,0,0,0-.29-.06Zm2.67-5.68a.64.64,0,0,0-.54.31l-.55,1.27a.63.63,0,0,0,.34.77.74.74,0,0,0,.25.05.62.62,0,0,0,.57-.38c.17-.38.34-.76.5-1.15a.62.62,0,0,0-.33-.82.64.64,0,0,0-.24-.05Zm2.24-5.86a.6.6,0,0,0-.55.35c-.15.45-.31.89-.47,1.33a.63.63,0,0,0,.4.72.78.78,0,0,0,.21,0,.65.65,0,0,0,.59-.41c.14-.4.28-.8.41-1.2a.63.63,0,0,0-.39-.8.64.64,0,0,0-.2,0Zm1.82-6a.65.65,0,0,0-.58.38c-.11.45-.24.89-.36,1.34a.61.61,0,0,0,.45.71.47.47,0,0,0,.17,0,.62.62,0,0,0,.59-.46c.11-.37.2-.74.3-1.11l0-.11a.61.61,0,0,0-.44-.76l-.16,0Zm1.36-6.12a.61.61,0,0,0-.59.43c-.08.45-.17.9-.26,1.35a.62.62,0,0,0,.5.68l.12,0a.63.63,0,0,0,.61-.5c.06-.29.11-.57.16-.85l.07-.39a.62.62,0,0,0-.5-.73Zm.92-6.21a.61.61,0,0,0-.6.46c-.05.45-.1.89-.16,1.33a.61.61,0,0,0,.54.69H285a.64.64,0,0,0,.63-.55c.05-.41.09-.83.14-1.25a.63.63,0,0,0-.56-.69Zm.46-6.24a.62.62,0,0,0-.61.51l-.06,1.36a.61.61,0,0,0,.58.61h0a.62.62,0,0,0,.62-.59c0-.41,0-.83.05-1.25a.61.61,0,0,0-.6-.64Zm0-6.29h0a.62.62,0,0,0-.6.57l0,1.39a.62.62,0,0,0,.62.54h0a.61.61,0,0,0,.61-.63l0-1.27a.63.63,0,0,0-.62-.6Zm-.44-6.26h-.07a.62.62,0,0,0-.55.62c.05.46.09.91.13,1.37a.63.63,0,0,0,.61.51h.06a.62.62,0,0,0,.57-.68c0-.42-.09-.83-.14-1.25a.61.61,0,0,0-.61-.56Zm-.89-6.21h-.11a.64.64,0,0,0-.51.66l.24,1.39a.61.61,0,0,0,.59.43h.1a.63.63,0,0,0,.52-.72c-.07-.42-.14-.83-.22-1.25a.61.61,0,0,0-.61-.51ZM282.91,252a.39.39,0,0,0-.15,0,.63.63,0,0,0-.47.7c.12.45.23.9.34,1.35a.63.63,0,0,0,.58.39l.15,0a.62.62,0,0,0,.46-.75c-.09-.37-.18-.73-.28-1.1l0-.12a.62.62,0,0,0-.6-.47Zm-1.79-6a.51.51,0,0,0-.2,0,.62.62,0,0,0-.41.71c.15.44.3.89.44,1.34a.65.65,0,0,0,.57.35l.19,0a.64.64,0,0,0,.4-.79c-.13-.39-.26-.79-.4-1.19a.62.62,0,0,0-.59-.43Zm-2.22-5.87a.69.69,0,0,0-.24.05.63.63,0,0,0-.36.74c.18.43.36.86.53,1.3a.63.63,0,0,0,.55.32.59.59,0,0,0,.23,0,.62.62,0,0,0,.35-.81l-.48-1.17a.63.63,0,0,0-.58-.39Zm-2.64-5.69a.77.77,0,0,0-.29.07.65.65,0,0,0-.31.76l.63,1.24a.61.61,0,0,0,.53.31.54.54,0,0,0,.27-.07.62.62,0,0,0,.29-.83l-.57-1.13a.62.62,0,0,0-.55-.35ZM273.2,229a.66.66,0,0,0-.33.09.61.61,0,0,0-.24.78l.55.91.13.23a.63.63,0,0,0,.54.31.68.68,0,0,0,.31-.08.64.64,0,0,0,.23-.86l-.53-.88-.13-.2a.62.62,0,0,0-.53-.3Zm-3.44-5.25a.63.63,0,0,0-.54.93l.76,1.1a.64.64,0,0,0,.5.25.69.69,0,0,0,.36-.11A.63.63,0,0,0,271,225c-.23-.34-.48-.69-.72-1a.64.64,0,0,0-.51-.27Zm-3.82-5a.58.58,0,0,0-.39.15.61.61,0,0,0-.12.82l.86,1.06a.59.59,0,0,0,.44.19.61.61,0,0,0,.39-.13.62.62,0,0,0,.1-.88c-.26-.33-.53-.66-.8-1a.62.62,0,0,0-.48-.23Zm-4.16-4.69a.6.6,0,0,0-.43.18.62.62,0,0,0,0,.85l.93,1a.58.58,0,0,0,.4.14.61.61,0,0,0,.42-.16.63.63,0,0,0,0-.88L263,215l-.73-.77a.62.62,0,0,0-.45-.2Zm-4.49-4.37a.59.59,0,0,0-.46.2.62.62,0,0,0,0,.84c.34.32.69.63,1,.95a.66.66,0,0,0,.36.11.62.62,0,0,0,.42-1.08l-.92-.86a.61.61,0,0,0-.42-.16Zm-4.8-4.05a.63.63,0,0,0-.49.24.64.64,0,0,0,.06.85l1.08.85a.64.64,0,0,0,.33.1.6.6,0,0,0,.48-.24.62.62,0,0,0-.09-.87l-1-.79a.62.62,0,0,0-.38-.14ZM247.41,202a.61.61,0,0,0-.51.28.63.63,0,0,0,.1.82l1.16.79a.55.55,0,0,0,.28.07.62.62,0,0,0,.52-.27.64.64,0,0,0-.16-.87l-1-.71a.66.66,0,0,0-.35-.11Zm-5.33-3.3a.65.65,0,0,0-.55.32.61.61,0,0,0,.17.8l1.2.7a.58.58,0,0,0,.26.05.62.62,0,0,0,.32-1.15l-1-.56-.14-.07a.55.55,0,0,0-.3-.09Zm-5.56-2.9a.62.62,0,0,0-.35,1.14l1,.47.07,0,.1,0,.05,0a.59.59,0,0,0,.29.07.62.62,0,0,0,.27-1.18l-.83-.41-.31-.14a.5.5,0,0,0-.26-.06Zm-5.76-2.5a.61.61,0,0,0-.58.4.62.62,0,0,0,.29.78l1.22.48h0a.5.5,0,0,0,.23.05.62.62,0,0,0,.24-1.2l-1-.4-.18-.06a.59.59,0,0,0-.22-.05Zm-5.93-2.06a.63.63,0,0,0-.6.44.62.62,0,0,0,.35.75l1.31.42H226a.6.6,0,0,0,.59-.43.62.62,0,0,0-.39-.78l-1.22-.38a.57.57,0,0,0-.18,0Zm-6.06-1.62a.61.61,0,0,0-.6.48.62.62,0,0,0,.38.72l1.36.32H220a.62.62,0,0,0,.15-1.22l-1.24-.3Zm-6.16-1.18a.62.62,0,0,0-.15,1.23l1.36.21h0a.62.62,0,0,0,.09-1.24l-.09,0-1.16-.18Zm-6.24-.72a.62.62,0,0,0-.11,1.23l1.4.12a.62.62,0,0,0,0-1.24l-1.26-.11Z" transform="translate(-29.13 -52.43)"/><g class="cls-5"><path class="cls-6" d="M230.46,135.05v7.23l-1.41.59-5.12-5.12L216.69,145l5.11,5.11c-.22.56-.35.86-.57,1.41H214v10.25h7.24l.57,1.4-5.11,5.12,7.24,7.23,5.12-5.11,1.41.59v7.23H240.7V171l1.41-.59,5.11,5.11,7.24-7.23-5.11-5.12.58-1.4h7.23V151.51h-7.23l-.58-1.41,5.11-5.11-7.24-7.24-5.11,5.12-1.41-.59v-7.23Zm7.92,2.31v6.46l.84.34,3.32,1.37.66-.49,4-4,4,4-4.57,4.56.35.83,1.37,3.33.82.11h5.68v5.62h-6.46l-.33.83-1.37,3.33.49.66s2.89,2.88,4,4l-4,4-4.56-4.56-.83.35-3.33,1.37-.12.81v5.69h-5.61v-6.46l-.83-.33-3.33-1.37-.66.49-4,4c-1-1-3-3-4-4,1.12-1.14,4.56-4.57,4.56-4.57l-.35-.83-1.37-3.32-.82-.12h-5.68v-5.62h6.46l.33-.83,1.37-3.32L224,149l-4-4,4-4,4.56,4.56.83-.35,3.33-1.37.12-.81v-5.69Z" transform="translate(-29.13 -52.43)"/><path class="cls-6" d="M225.91,156.63a9.67,9.67,0,1,0,9.67-9.67A9.69,9.69,0,0,0,225.91,156.63Zm2.31,0a7.36,7.36,0,1,1,7.36,7.36A7.36,7.36,0,0,1,228.22,156.63Z" transform="translate(-29.13 -52.43)"/></g><g class="cls-5"><path class="cls-6" d="M429.11,224.57a10.55,10.55,0,0,0,2.06,5.92,14.52,14.52,0,0,1,2.08,4.59l.57,2.67c.65,3.16,1.15,5.29,2.28,5.84a3.38,3.38,0,0,0,6.67,0c1.12-.55,1.62-2.68,2.27-5.84l.57-2.67a14.31,14.31,0,0,1,2.08-4.59,10.55,10.55,0,0,0,2.07-5.92c0-8.27-5.58-11.2-10.36-11.2S429.11,216.3,429.11,224.57Zm7.09,19.07c.15.05.27.18.44.18A.65.65,0,0,1,436.2,243.64Zm1.05-.47a.61.61,0,0,0-.61-.57c-.57,0-1.2-3.07-1.61-5.09l-.58-2.7a15.88,15.88,0,0,0-2.23-5c-1-1.66-1.89-3.08-1.89-5.28,0-9.49,7.55-10,9.07-10s9.13.48,9.13,10c0,2.2-.88,3.62-1.89,5.28a15.88,15.88,0,0,0-2.23,5l-.57,2.7c-.41,2-1,5.09-1.61,5.09a.62.62,0,0,0-.62.58,2.08,2.08,0,0,1-2.16,2A2.12,2.12,0,0,1,437.25,243.17Zm5.41.47a.6.6,0,0,1-.43.18C442.39,243.82,442.51,243.69,442.66,243.64Z" transform="translate(-29.13 -52.43)"/><path class="cls-6" d="M436.64,242.6a.61.61,0,1,0,0,1.22h5.59a.61.61,0,1,0,0-1.22Z" transform="translate(-29.13 -52.43)"/><path class="cls-6" d="M435,239.25a.61.61,0,1,0,0,1.22h8.66a.61.61,0,0,0,0-1.22Z" transform="translate(-29.13 -52.43)"/><rect class="cls-6" x="409.68" y="155.32" width="1.23" height="2.86"/><rect class="cls-6" x="422.37" y="169.63" width="2.86" height="1.23"/><rect class="cls-6" x="395.36" y="169.63" width="2.86" height="1.23"/><rect class="cls-6" x="449.49" y="231.91" width="1.22" height="2.86" transform="translate(-62.22 334.45) rotate(-45.03)"/><rect class="cls-6" x="429.27" y="211.7" width="1.23" height="2.86" transform="translate(-53.76 314.46) rotate(-45.06)"/><polygon class="cls-6" points="418.4 161.28 419.26 162.15 421.29 160.12 420.42 159.25 418.4 161.28"/><rect class="cls-6" x="427.48" y="232.58" width="2.86" height="1.23" transform="translate(-68.47 318.93) rotate(-44.97)"/></g><rect class="cls-7" x="142.88" y="349.31" width="365.51" height="2.65"/><path class="cls-8" d="M443.19,390.43l-28.28-7.52H224l-28.28,7.52c-1.74.4-2.41.89-2.41,1.27,0,.89,1.12,1.23,3.79,1.23H441.8c2.68,0,3.8-.34,3.8-1.23C445.6,391.32,444.92,390.83,443.19,390.43Z" transform="translate(-29.13 -52.43)"/><path class="cls-9" d="M445.57,399.25v-7.38c-.2.74-1.52,1.06-3.77,1.06H197.14c-2.24,0-3.56-.32-3.76-1.06v7.38c-.28,1.54,1,2.59,3.76,2.59H441.8C444.52,401.84,445.84,400.79,445.57,399.25Z" transform="translate(-29.13 -52.43)"/><path class="cls-10" d="M414.91,382.91V263.09a7.44,7.44,0,0,0-7.42-7.42h-176a7.44,7.44,0,0,0-7.42,7.42V382.91Z" transform="translate(-29.13 -52.43)"/><path class="cls-11" d="M231.19,257a6,6,0,0,0-5.95,6V381.61H413.71V262.93a6,6,0,0,0-6-6Z" transform="translate(-29.13 -52.43)"/><rect class="cls-12" x="204.31" y="212.97" width="172.07" height="108.36"/><rect class="cls-13" x="392.89" y="343.6" width="11.07" height="1.23"/><path class="cls-14" d="M322,261.22a2.48,2.48,0,1,1-2.48-2.47A2.48,2.48,0,0,1,322,261.22Z" transform="translate(-29.13 -52.43)"/><path class="cls-15" d="M320.93,261.22a1.46,1.46,0,1,1-1.46-1.45A1.46,1.46,0,0,1,320.93,261.22Z" transform="translate(-29.13 -52.43)"/><path class="cls-16" d="M299.76,392.93a2.42,2.42,0,0,0-.05.47,2.7,2.7,0,0,0,2.69,2.69h34.15a2.69,2.69,0,0,0,2.68-2.69,3.57,3.57,0,0,0,0-.47Z" transform="translate(-29.13 -52.43)"/><path class="cls-4" d="M302.21,200.12l48.59,30.94h0a.63.63,0,0,0,.81-.34.64.64,0,0,0-.34-.82h0L302.68,199h0a.63.63,0,0,0-.47,1.16Z" transform="translate(-29.13 -52.43)"/><path class="cls-4" d="M300.2,197.68l-55,16h0a.62.62,0,1,0,.13,1.23h0l55-16h0a.62.62,0,0,0,.55-.69.61.61,0,0,0-.68-.55Z" transform="translate(-29.13 -52.43)"/><polygon class="cls-17" points="308 288.01 198.29 271.44 215.17 159.63 324.89 176.2 308 288.01"/><g class="cls-18"><path class="cls-19" d="M329.81,308.18a4.22,4.22,0,0,1-4.79,3.54l-75.56-11.41a4.23,4.23,0,0,1-3.54-4.8l10.44-69.12a4.22,4.22,0,0,1,4.8-3.54l75.56,11.41a4.22,4.22,0,0,1,3.53,4.8Z" transform="translate(-29.13 -52.43)"/></g><path class="cls-20" d="M276.46,313.82l-.75,5a1.41,1.41,0,0,1-.2.72.34.34,0,0,1-.14.08,2.28,2.28,0,0,1-.74-.08l-1.92-.29a1.07,1.07,0,0,1-.36-.08.48.48,0,0,1-.15-.2,2.34,2.34,0,0,1,.09-.8l.79-5.27a1.52,1.52,0,0,1,.09-.38.38.38,0,0,1,.35-.18,5,5,0,0,1,.74.1l1.45.21a2.45,2.45,0,0,1,.67.15.37.37,0,0,1,.17.21A2.84,2.84,0,0,1,276.46,313.82Z" transform="translate(-29.13 -52.43)"/><path class="cls-20" d="M284.89,315.61a1.08,1.08,0,0,1,.38.81.91.91,0,0,1-.56.86c-.12.05-.25.05-.38.09s.08.14.12.18a1,1,0,0,1,.23.37.94.94,0,0,1-.46,1.13,2.63,2.63,0,0,0-.3.08c0,.09.08.13.11.17a1.06,1.06,0,0,1,0,1,.81.81,0,0,1-.71.4,8.7,8.7,0,0,1-.87-.13l-5.19-.77c-.41-.07-.86,0-1-.3a1.72,1.72,0,0,1,0-.77l.37-2.47c.09-.55.15-1.13.25-1.65a6.7,6.7,0,0,1,2.78-4.15l.46-.36a1.58,1.58,0,0,0,.45-.39,1.7,1.7,0,0,0,.06-.35l.06-.35a6.13,6.13,0,0,1,.13-.67.77.77,0,0,1,.74-.51,1,1,0,0,1,.9.66,3.57,3.57,0,0,1-.07,2.34,5.84,5.84,0,0,1-.51,1c-.12.21-.27.46-.42.68s-.14.17-.14.21.37.18.54.21l2,.29a3.25,3.25,0,0,1,1.24.27.93.93,0,0,1,.41.89,1.18,1.18,0,0,1-.55,1l-.32.1C284.73,315.51,284.83,315.55,284.89,315.61Z" transform="translate(-29.13 -52.43)"/><g class="cls-21"><polygon class="cls-22" points="296.82 251.97 297.65 246.94 272.58 208.67 251.16 227.97 242.51 218.62 222.35 234.89 221.51 240.4 296.82 251.97"/><path class="cls-22" d="M283.1,252a8.49,8.49,0,1,1-7.12-9.65A8.48,8.48,0,0,1,283.1,252Z" transform="translate(-29.13 -52.43)"/></g><path class="cls-23" d="M248.18,305.9c2.6-1.07,4,1.54,4.11,1.79.19-.2,2.28-2.29,4.45-.5,2,1.62,2.3,6.71-5.79,9.57h0l0,0C244,311.63,245.83,306.87,248.18,305.9Z" transform="translate(-29.13 -52.43)"/><g class="cls-24"><path class="cls-25" d="M261.54,312.33a.67.67,0,1,0-.2,1.32l5.4.81a.67.67,0,0,0,.76-.55.68.68,0,0,0-.56-.77Z" transform="translate(-29.13 -52.43)"/></g><g class="cls-24"><path class="cls-25" d="M262,309.62a.67.67,0,0,0-.76.57.65.65,0,0,0,.56.75l5.39.82a.67.67,0,1,0,.2-1.32Z" transform="translate(-29.13 -52.43)"/></g><g class="cls-24"><path class="cls-25" d="M261.13,315a.67.67,0,1,0-.2,1.32l5.4.82a.67.67,0,0,0,.2-1.33Z" transform="translate(-29.13 -52.43)"/></g><g class="cls-24"><path class="cls-25" d="M289.15,316.5a.66.66,0,0,0-.76.56.67.67,0,0,0,.56.76l5.4.82a.67.67,0,0,0,.2-1.33Z" transform="translate(-29.13 -52.43)"/></g><g class="cls-24"><path class="cls-25" d="M289.56,313.79a.67.67,0,0,0-.2,1.33l5.4.81a.67.67,0,0,0,.76-.56.67.67,0,0,0-.57-.76Z" transform="translate(-29.13 -52.43)"/></g><g class="cls-24"><path class="cls-25" d="M288.74,319.2a.67.67,0,0,0-.2,1.32l5.4.82a.67.67,0,1,0,.2-1.32Z" transform="translate(-29.13 -52.43)"/></g><g class="cls-24"><path class="cls-25" d="M319.37,321.06a.67.67,0,0,0-.2,1.33l5.4.81a.68.68,0,0,0,.76-.56.67.67,0,0,0-.57-.76Z" transform="translate(-29.13 -52.43)"/></g><g class="cls-24"><path class="cls-25" d="M319.78,318.36a.67.67,0,1,0-.2,1.32l5.39.81a.65.65,0,0,0,.76-.55.67.67,0,0,0-.55-.77Z" transform="translate(-29.13 -52.43)"/></g><g class="cls-24"><path class="cls-25" d="M319,323.76a.67.67,0,0,0-.2,1.33l5.4.81a.67.67,0,0,0,.76-.56.68.68,0,0,0-.56-.76Z" transform="translate(-29.13 -52.43)"/></g><path class="cls-26" d="M315.51,316.56l-11.8-1.77a.82.82,0,0,0-1,.72l-1,6.81a.93.93,0,0,0,.85,1.15l7.83,1.18,1.86,2.52c.17.24.35.2.4-.1l.3-2,1.25.19a.56.56,0,0,0,.62-.46l1.14-7.58A.56.56,0,0,0,315.51,316.56Z" transform="translate(-29.13 -52.43)"/><rect class="cls-27" x="450.97" y="79.67" width="13.07" height="1.58"/><rect class="cls-28" x="452.03" y="66.73" width="10.96" height="1.59"/><rect class="cls-29" x="454.34" y="54.59" width="6.34" height="1.59"/><path class="cls-30" d="M292.92,129.18,308.76,145a1.2,1.2,0,0,0,1.68,0l14.86-14.87L340.18,145a1.18,1.18,0,0,0,1.67,0l14.87-14.87L371.59,145a1.2,1.2,0,0,0,1.68,0l14.87-14.87L403,145a1.2,1.2,0,0,0,1.68,0l14.86-14.87L434.42,145a1.2,1.2,0,0,0,1.68,0l15.84-15.84a1.2,1.2,0,0,0,0-1.68,1.18,1.18,0,0,0-1.68,0l-15,15-14.44-14.44a1.13,1.13,0,0,0-.29-.55,1.61,1.61,0,0,0-1.95,0,1.13,1.13,0,0,0-.29.55l-14.44,14.44L389.4,128.05a1.13,1.13,0,0,0-.29-.55,1.16,1.16,0,0,0-1-.33,1.18,1.18,0,0,0-1,.33,1.22,1.22,0,0,0-.29.55l-14.44,14.44L358,128.05a1.22,1.22,0,0,0-.29-.55,1.61,1.61,0,0,0-1.95,0,1.13,1.13,0,0,0-.29.55L341,142.49l-14.44-14.44a1.06,1.06,0,0,0-.29-.55,1.61,1.61,0,0,0-1.95,0,1.13,1.13,0,0,0-.29.55L309.6,142.49l-15-15a1.18,1.18,0,0,0-1.68,0A1.2,1.2,0,0,0,292.92,129.18ZM520.6,128a1.19,1.19,0,0,0,.24,1.66l19.89,14.92a1.85,1.85,0,0,0,.13.29,1.62,1.62,0,0,0,2.24,0,1.92,1.92,0,0,0,.14-.29l19.88-14.92a1.19,1.19,0,1,0-1.42-1.9L542,142.57l-19.71-14.79A1.2,1.2,0,0,0,520.6,128Z" transform="translate(-29.13 -52.43)"/><path class="cls-31" d="M276.49,144.78a1.58,1.58,0,0,0,1.47,1H582.8l.13,0,.21,0a2,2,0,0,0,.34-.12l.17-.09a1.52,1.52,0,0,0,.4-.36h0a1.7,1.7,0,0,0,.24-.44s0-.05,0-.07a1.13,1.13,0,0,1,0-.18,1.7,1.7,0,0,0,0-.39,1.62,1.62,0,0,0,0-.19,1.42,1.42,0,0,0-.11-.35c0-.06-.05-.11-.09-.17a1.67,1.67,0,0,0-.38-.42l-20.59-15.45a1.7,1.7,0,0,0-.51-.24l-.2,0a1,1,0,0,0-.24,0H521.56a1.62,1.62,0,0,0-.95.32L501.1,141.93H468.29l-15-14.73a1.57,1.57,0,0,0-1.11-.45H293.79a1.58,1.58,0,0,0-1.12.47l-15.84,15.84A1.55,1.55,0,0,0,276.49,144.78Zm229-2.19,16.55-12.28h39.61c.65.5,11.43,8.59,16.36,12.28Zm-223.75,0,12.67-12.67H451.54l12.9,12.67Z" transform="translate(-29.13 -52.43)"/><path class="cls-32" d="M486.71,82.53c-1.64,0-1.92,1.93-2,2.65l-8.34,57.88a4.24,4.24,0,0,0,4.29,4.94h12.93a4.2,4.2,0,0,0,4.24-4.95l-9.05-57.9C488.65,84.43,488.35,82.51,486.71,82.53Zm6.86,62.31H480.64a1.17,1.17,0,0,1-.91-.38,1.14,1.14,0,0,1-.24-1h0s5.68-39.43,7.28-50.58c1.75,11.14,7.92,50.6,7.92,50.6a1.85,1.85,0,0,1,0,.23,1.05,1.05,0,0,1-.24.71A1.12,1.12,0,0,1,493.57,144.84Z" transform="translate(-29.13 -52.43)"/><path class="cls-33" d="M302.17,185.42a1,1,0,0,0,1,1h0a1,1,0,0,0,1-1v-4.57a1,1,0,0,0-1-1h0a1,1,0,0,0-1,1Z" transform="translate(-29.13 -52.43)"/><path class="cls-33" d="M304.66,187.15s.92,1.81,1.89,3.69,2.12,4.42.95,6.93a5.58,5.58,0,0,1-5.05,3.2,5.73,5.73,0,0,1-5.52-2.91,6.44,6.44,0,0,1,.55-6.72,4.27,4.27,0,0,1,1.14-1.18c.36-.24.53-.07.44.27-.3,1.17-.83,4,.54,6.1a2.81,2.81,0,0,0,2.69,1.35,2.53,2.53,0,0,0,2.41-1.41,5.2,5.2,0,0,0-.36-4c-1.17-2.48-2.14-4.62-2.18-4.7-.37-.76-.34-.93.43-1.31A1.56,1.56,0,0,1,304.66,187.15Z" transform="translate(-29.13 -52.43)"/><path class="cls-34" d="M300.82,186.32a2.42,2.42,0,1,0,2.42-2.42A2.42,2.42,0,0,0,300.82,186.32Z" transform="translate(-29.13 -52.43)"/><path class="cls-4" d="M306,166.17a.69.69,0,0,0,.68.68h0a.69.69,0,0,0,.68-.68V150.33a.68.68,0,0,0-.68-.67h0a.68.68,0,0,0-.68.67Z" transform="translate(-29.13 -52.43)"/><path class="cls-4" d="M299.31,166.17a.68.68,0,0,0,.68.68h0a.69.69,0,0,0,.68-.68V150.33a.68.68,0,0,0-.68-.67h0a.67.67,0,0,0-.68.67Z" transform="translate(-29.13 -52.43)"/><path class="cls-34" d="M299.07,177.61a3.44,3.44,0,0,0,3.36,3.07h1.93a3.44,3.44,0,0,0,3.36-3.07l1-11.61a2.78,2.78,0,0,0-2.82-3.08h-5a2.79,2.79,0,0,0-2.83,3.08Z" transform="translate(-29.13 -52.43)"/><path class="cls-35" d="M302.43,180.68a3.44,3.44,0,0,1-3.36-3.07l-.8-9.21,9.71,6.16-.26,3.05a3.44,3.44,0,0,1-3.36,3.07Z" transform="translate(-29.13 -52.43)"/><path class="cls-4" d="M584.18,139.53,489.6,81.09h0a.4.4,0,0,1-.13-.55.41.41,0,0,1,.55-.13h0l94.58,58.44h0a.4.4,0,0,1-.42.68Z" transform="translate(-29.13 -52.43)"/><path class="cls-4" d="M364.74,122.76,483.48,80.23h0a.4.4,0,0,1,.51.24.41.41,0,0,1-.24.51h0L365,123.51h0a.4.4,0,1,1-.27-.75Z" transform="translate(-29.13 -52.43)"/><path class="cls-4" d="M485.61,80.54l-191.73,46.6h0a.4.4,0,0,1-.18-.77h0l191.72-46.6h0a.4.4,0,0,1,.48.29.39.39,0,0,1-.29.48Z" transform="translate(-29.13 -52.43)"/><rect class="cls-34" x="258.48" y="92.15" width="31.08" height="6.33"/><rect class="cls-36" x="258.29" y="92.15" width="15.74" height="6.33"/><rect class="cls-34" x="504.59" y="77.95" width="28.31" height="32.27"/><path class="cls-37" d="M539.4,139.16h17a.33.33,0,0,1,.33.33v23.16H556V139.83h-4.95v22.82h-.66V139.83h-5.09v22.82h-.66V139.83h-4.94v22.82h-.66V139.49A.33.33,0,0,1,539.4,139.16Z" transform="translate(-29.13 -52.43)"/><path class="cls-38" d="M477.49,178.63l7.76,10.69-7.81,10.77.61.45h-1.11v2.37h.93l-.43.32L485.25,214l-7.81,10.78.07.05h-.57v2.37h1.48l-1,.72,7.81,10.77-7.57,10.42h-.74v2.38h1.41l-.91,1.11,7.81,10.78-7.28,10h-1v2.38h1.69l-1.19.86,7.81,10.77-7,9.64h-1.32v2.37h1.48l-1,.72,7.81,10.78-6.71,9.23h-1.6v2.38h1.41l-.91.66L485.25,334l-6.42,8.84h-1.89v2.38h1l-.5.37,7.81,10.77-6.13,8.45h-2.18v2.37h.58l-.08.06L485.25,378l-.66.91h4.26l-.66-.91L496,367.21l-.09-.06.09-.06-.46-.63v-1.69h-1.23l-6.13-8.45L496,345.55l-.51-.37h.05v-.12l.46-.33-.46-.63v-1.3h-.94L488.19,334,496,323.19l-.92-.66h.46V322l.46-.33-.46-.63v-.9h-.65l-6.71-9.23L496,300.14l-1-.72h.53v-.9l.46-.34-.46-.62v-.51h-.36l-7-9.64L496,276.64l-1.19-.86h.73v-1.3l.46-.34-.46-.63v-.11h-.08l-7.28-10L496,252.6l-.46-1.11v-1.7l.46-.32-7.82-10.78L496,227.92l-1-.72h.53v-2.09l.46-.33L488.19,214,496,203.23l-.46-.33v-2.36h-.16l.62-.45-7.82-10.77L496,178.55l-.46-.33v-2H476.94v2.38Zm2.84,188.51h12.79l-6.4,8.81-6.39-8.81Zm6.39-8.8,4.67,6.43h-9.33Zm-6.62-13.16h13.24l-6.62,9.12Zm6.62-9.2,4.95,6.82h-9.9Zm-6.83-13.45h13.66l-6.83,9.41Zm6.83-9.6,5.24,7.22H481.48Zm-6.87-13.51h13.74l-6.87,9.47Zm6.87-10,5.53,7.62H481.2Zm-7-13.65h14l-7,9.62Zm7-10.39,5.82,8H480.91Zm-7.16-13.9h14.32l-7.16,9.86Zm7.16-10.78,6.1,8.4h-12.2Zm-6.87-13.51h13.74l-6.87,9.47ZM486.72,216l6.39,8.8H480.33Zm-6.58-13.12h13.17L486.72,212Zm6.58-11.57,6.68,9.2H480.05Zm-6.29-12.71H493l-6.3,8.67Z" transform="translate(-29.13 -52.43)"/><rect class="cls-39" x="465.49" y="89.85" width="3.29" height="245.56"/><rect class="cls-40" x="446.18" y="89.85" width="3.29" height="245.56"/><path class="cls-34" d="M575,143.68a6,6,0,1,0,6-6A6,6,0,0,0,575,143.68Z" transform="translate(-29.13 -52.43)"/><path class="cls-34" d="M361.11,128.24a6,6,0,1,0,6-6A6,6,0,0,0,361.11,128.24Z" transform="translate(-29.13 -52.43)"/><path class="cls-34" d="M481,85.6a6,6,0,1,0,6-6A6,6,0,0,0,481,85.6Z" transform="translate(-29.13 -52.43)"/><rect class="cls-41" x="432.96" y="326.41" width="50.42" height="14.32"/><rect class="cls-42" x="418.7" y="337.67" width="78.94" height="12.17"/><path class="cls-34" d="M452.07,165.3v10.62a1.59,1.59,0,0,0,1.58,1.59h45.92a1.59,1.59,0,0,0,1.58-1.59V145.56a1.58,1.58,0,0,0-1.58-1.58H474.5C462.42,144,452.07,151.63,452.07,165.3Z" transform="translate(-29.13 -52.43)"/><path class="cls-34" d="M474.89,174.34H455.24v-9c0-.69,0-1.34.09-2h19.56Z" transform="translate(-29.13 -52.43)"/><path class="cls-43" d="M455.34,163.12c1.06-11,10.14-16,19.16-16h.39v16Z" transform="translate(-29.13 -52.43)"/><g class="cls-44"><path class="cls-35" d="M455.33,163.12a.19.19,0,0,0-.2.18l-.09,2v9a.2.2,0,0,0,.2.2h19.65a.2.2,0,0,0,.2-.2v-11a.2.2,0,0,0-.2-.2Zm19.36.39v10.63H455.43V165.3s.07-1.49.09-1.79Z" transform="translate(-29.13 -52.43)"/></g><path class="cls-45" d="M470,165.05a.54.54,0,0,0,.54.54H473a.54.54,0,0,0,.53-.54h0a.54.54,0,0,0-.53-.55h-2.43a.55.55,0,0,0-.54.55Z" transform="translate(-29.13 -52.43)"/><path class="cls-46" d="M458.76,154.14l5.35,9h6.33l-7.58-12.74-.39.26c-.23.16-.46.32-.68.49s-.46.37-.68.55-.47.41-.7.62-.56.54-.82.83-.25.29-.37.44S458.91,153.94,458.76,154.14Zm5.88-4.77,8.18,13.75h2.07v-.5l-8.37-14.07C465.88,148.8,465.25,149.07,464.64,149.37Z" transform="translate(-29.13 -52.43)"/><path class="cls-35" d="M477.08,144h22.49a1.58,1.58,0,0,1,1.58,1.58v30.36a1.59,1.59,0,0,1-1.58,1.59H497Z" transform="translate(-29.13 -52.43)"/><path class="cls-43" d="M501.15,157.7h-8.83a3.17,3.17,0,0,1-3.17-3.16v-4a3.17,3.17,0,0,1,3.17-3.17h8.83Z" transform="translate(-29.13 -52.43)"/><path class="cls-46" d="M495.78,147.38l5.37,9v-4l-3-5.05Zm-6.63,3.17v.33l4.06,6.82h6.33l-6.14-10.32h-1.08A3.17,3.17,0,0,0,489.15,150.55Z" transform="translate(-29.13 -52.43)"/><rect class="cls-47" x="504.59" y="77.76" width="28.31" height="16.43"/><polygon class="cls-35" points="527.46 94.19 532.9 94.19 532.9 77.76 516.23 77.76 527.46 94.19"/><path class="cls-48" d="M216.67,300.41l10-4.32s1.65,1.38,1.65,2.48-8.91,9.55-8.91,9.55Z" transform="translate(-29.13 -52.43)"/><path class="cls-49" d="M228.74,294a1.66,1.66,0,1,0,2.62-.56A1.92,1.92,0,0,0,228.74,294Z" transform="translate(-29.13 -52.43)"/><polygon class="cls-49" points="185.96 348.86 185.96 352.07 188.5 352.07 188.5 348.69 185.96 348.86"/><path class="cls-50" d="M215.1,403.42a2,2,0,0,0-.68,1.61v2.33H224.6a1.16,1.16,0,0,0-1.21-1.38,8.6,8.6,0,0,1-4.31-1.63c-.58-.68-1-.93-1.45-.93Z" transform="translate(-29.13 -52.43)"/><polygon class="cls-49" points="163.67 347.81 163.67 351.03 166.21 351.03 166.21 347.64 163.67 347.81"/><path class="cls-51" d="M192.8,402.37a2,2,0,0,0-.67,1.61v2.33h10.18a1.16,1.16,0,0,0-1.21-1.37,8.69,8.69,0,0,1-4.31-1.63c-.58-.68-1-.94-1.45-.94Z" transform="translate(-29.13 -52.43)"/><path class="cls-52" d="M197,339.61s2.47,19.57-.22,30.92-4.62,29.66-4.62,29.66.89.79,3.3.22c0,0,13.26-33.4,13.26-44.34s-2.8-13.88-2.8-13.88S198.82,337.56,197,339.61Z" transform="translate(-29.13 -52.43)"/><path class="cls-53" d="M201,339.61s8.5,19.87,9.25,33.08a228.22,228.22,0,0,0,4,28.88h3.88s4-34.24,1.94-61.7C219.67,333.82,204,336.26,201,339.61Z" transform="translate(-29.13 -52.43)"/><path class="cls-49" d="M218.48,281.14s.08,3.29.08,3.74a5.89,5.89,0,0,0,1.26,2.3c.41.37-.08,1.1-.61,1.14s-.44.73-.44,1.38c0,1.38.08,5.72-4.39,3,0,0-.81,2.91-.57,3.84l-7,.14a27,27,0,0,0,.65-5.19C207.33,289.87,212.94,279.3,218.48,281.14Z" transform="translate(-29.13 -52.43)"/><path class="cls-54" d="M219.37,277.89c-3.16.33-10.54-3.24-12.37,1.54,0,0-1.48.05-1.11,2.54s-.31,9.92,3.1,9.92,4.78-1.37,4.78-1.37-2.47-3.31-.85-4.59c.51-.39,1-.07,1.06.82s-.08,4.95.44,6.09a2.31,2.31,0,0,0,2.92,1.31c1.89-.53,1.83-4.73,1.41-3.48a1.64,1.64,0,0,1-2.74.45c-.77-.77-1.44-5.27-1.44-5.27,0-2.16.64-5.16,3.91-4.71a9.35,9.35,0,0,0,2,.37C221.53,281.59,222.54,277.57,219.37,277.89Z" transform="translate(-29.13 -52.43)"/><path class="cls-55" d="M196.33,339.29s1.1-30.89,3.86-37,6.08-7.53,8.15-7.53,9.33.63,15,9.72,8.28,10.67,14,11.4,8.64.94,8.64.94a6.08,6.08,0,0,1,0,4s-10.07.55-14.9-.78a36.36,36.36,0,0,1-9.52-4.63l-.14,24.86s-3.65,3.37-13.39,3.37S196.33,339.29,196.33,339.29Z" transform="translate(-29.13 -52.43)"/><path class="cls-49" d="M247.48,318.55c0,.95,1.17,1.72,2.62,1.72s2.62-.77,2.62-1.72-1.17-1.73-2.62-1.73S247.48,317.59,247.48,318.55Z" transform="translate(-29.13 -52.43)"/><path class="cls-56" d="M482.16,304.66s-1.7.15-5.74,3.69a101.9,101.9,0,0,1-8.87,7.57,111.13,111.13,0,0,1-17.83,9.66,4.25,4.25,0,0,0,.78,3.05c3.5-.56,25.14-8.58,31-13.38S486.79,303.6,482.16,304.66Z" transform="translate(-29.13 -52.43)"/><polygon class="cls-49" points="426.34 348.55 426.34 352.26 423.27 352.26 423.27 348.35 426.34 348.55"/><path class="cls-57" d="M455.47,403.44a2.2,2.2,0,0,1,.81,1.85V408H444a1.36,1.36,0,0,1,1.47-1.59,10.72,10.72,0,0,0,5.21-1.88c.71-.78,1.22-1.07,1.76-1.07Z" transform="translate(-29.13 -52.43)"/><polygon class="cls-49" points="457.65 346.28 458.92 349.74 456.05 350.79 454.71 347.14 457.65 346.28"/><path class="cls-58" d="M487.62,401a2.19,2.19,0,0,1,1.4,1.45c.45,1.24.92,2.51.92,2.51l-8.27,3-3.24,0s-.8-2,.88-1.95c3.31.09,3.87-1.65,4.17-2.4.4-1,.77-1.43,1.28-1.62Z" transform="translate(-29.13 -52.43)"/><path class="cls-49" d="M473.46,299.29a22,22,0,0,1-.42-10.76,38.18,38.18,0,0,0,4.32.09c1.44.06,1.53,2.11,1.66,3.08s1,3.08,1.48,3.22c.2-1.11.06-4.63,1.72-3.45s1.14,1.76,1.13,3.82,2.39,1.59,2.39,1.59a52.8,52.8,0,0,0-.34,6.45c0,2.42-7.15,8.83-7,2.23a14.46,14.46,0,0,1,1-4.36C476.18,303.42,474.43,302.16,473.46,299.29Z" transform="translate(-29.13 -52.43)"/><path class="cls-54" d="M473,288.53s-2.76-.39-3.17-1.94,3.42-1.68,6.47-3.06,7.62-3.22,10,.8a4.32,4.32,0,0,1,2.31,4c-.21,2.74-2.13,4.88-2.9,8.55,0,0-2.41.47-2.39-1.59s.5-2.64-1.13-3.82-1.52,2.34-1.72,3.45c-.52-.14-1.35-2.25-1.48-3.22s-.22-3-1.66-3.08A38.18,38.18,0,0,1,473,288.53Z" transform="translate(-29.13 -52.43)"/><path class="cls-54" d="M479.9,293.87s.15,4.8-1.85,5.26-4.63-.64-4.66,1,2.29,3.19,4.16,2.53,2.93-1.71,3.05-3-.06-6.22-.06-6.22Z" transform="translate(-29.13 -52.43)"/><path class="cls-59" d="M459.53,345.12s-5.79,19.42-7,28.32-1.37,28.33-1.37,28.33a6.12,6.12,0,0,0,5.47,0s2-26.28,9.41-36.67,5.26-15.53,5.26-15.53Z" transform="translate(-29.13 -52.43)"/><path class="cls-49" d="M449.05,327.22c.34.86-.46,2-1.78,2.49s-2.66.24-3-.61.47-2,1.78-2.49S448.72,326.37,449.05,327.22Z" transform="translate(-29.13 -52.43)"/><path class="cls-48" d="M479.38,345.72s-5.62,15.57.54,32,8.21,21.9,8.21,21.9a5.09,5.09,0,0,1-4.68,1.22c-2.57-3.85-18.24-29.45-21.15-41.95a127.89,127.89,0,0,1-2.55-13.43Z" transform="translate(-29.13 -52.43)"/><path class="cls-60" d="M471.45,310.9s4.28-6.68,9.84-7.36,7.61,4.11,6.16,11.21-8,22.63-7,31.23c0,0-10.64,6-21.81,0C458.62,346,465.94,320.1,471.45,310.9Z" transform="translate(-29.13 -52.43)"/><rect class="cls-61" x="330.28" y="218.95" width="105.03" height="67.2"/><rect class="cls-62" x="330.28" y="218.95" width="105.03" height="8.32"/><rect class="cls-63" x="362.2" y="221.23" width="70.12" height="3.75"/><polygon class="cls-63" points="355.38 224.53 353.76 223.22 355.38 221.91 355.38 224.53"/><polygon class="cls-63" points="358.04 224.53 359.66 223.22 358.04 221.91 358.04 224.53"/><path class="cls-64" d="M366,275.53a2.15,2.15,0,1,1-2.15-2.15A2.16,2.16,0,0,1,366,275.53Z" transform="translate(-29.13 -52.43)"/><path class="cls-65" d="M372.72,275.53a2.15,2.15,0,1,1-2.14-2.15A2.16,2.16,0,0,1,372.72,275.53Z" transform="translate(-29.13 -52.43)"/><path class="cls-66" d="M379.43,275.53a2.15,2.15,0,1,1-2.15-2.15A2.16,2.16,0,0,1,379.43,275.53Z" transform="translate(-29.13 -52.43)"/><rect class="cls-63" x="341.45" y="231.17" width="1.18" height="50.97"/><rect class="cls-63" x="336.69" y="232.75" width="1.97" height="1.97"/><rect class="cls-63" x="336.69" y="237.06" width="1.97" height="1.97"/><rect class="cls-63" x="336.69" y="241.38" width="1.97" height="1.97"/><rect class="cls-63" x="336.69" y="245.7" width="1.97" height="1.97"/><rect class="cls-63" x="336.69" y="250.01" width="1.97" height="1.96"/><rect class="cls-63" x="336.69" y="254.32" width="1.97" height="1.97"/><rect class="cls-63" x="336.69" y="258.64" width="1.97" height="1.98"/><rect class="cls-63" x="336.69" y="262.96" width="1.97" height="1.97"/><rect class="cls-63" x="336.69" y="267.27" width="1.97" height="1.97"/><rect class="cls-63" x="336.69" y="271.58" width="1.97" height="1.97"/><rect class="cls-63" x="336.69" y="275.9" width="1.97" height="1.96"/><path class="cls-63" d="M376.55,284.64l-1.43,1.53a.29.29,0,0,0,0,.38l1.39,1.43a.28.28,0,0,0,.38,0,.28.28,0,0,0,.09-.2.27.27,0,0,0-.08-.19l-1.2-1.24L377,285a.3.3,0,0,0,.08-.18.32.32,0,0,0-.1-.21A.28.28,0,0,0,376.55,284.64Z" transform="translate(-29.13 -52.43)"/><path class="cls-63" d="M383.31,284.62a.36.36,0,0,0-.09.21.25.25,0,0,0,.08.18l1.24,1.34-1.19,1.24a.26.26,0,0,0-.07.19.27.27,0,0,0,.08.2.29.29,0,0,0,.39,0l1.38-1.43a.28.28,0,0,0,0-.38l-1.43-1.53A.28.28,0,0,0,383.31,284.62Z" transform="translate(-29.13 -52.43)"/><path class="cls-63" d="M381.09,284.78l-2.65,2.71a.26.26,0,0,0,0,.39.27.27,0,0,0,.38,0l2.66-2.7a.28.28,0,0,0-.39-.39Z" transform="translate(-29.13 -52.43)"/><path class="cls-63" d="M376.55,331.34l-1.43,1.52a.29.29,0,0,0,0,.38l1.39,1.43a.27.27,0,0,0,.38,0,.25.25,0,0,0,.09-.19.3.3,0,0,0-.08-.2l-1.2-1.24c.28-.28,1.26-1.33,1.26-1.33a.36.36,0,0,0,.08-.19.26.26,0,0,0-.1-.2A.28.28,0,0,0,376.55,331.34Z" transform="translate(-29.13 -52.43)"/><path class="cls-63" d="M383.31,331.33a.29.29,0,0,0-.09.2.29.29,0,0,0,.08.19l1.24,1.33-1.19,1.24a.29.29,0,0,0-.07.2.24.24,0,0,0,.08.19.28.28,0,0,0,.39,0l1.38-1.43a.28.28,0,0,0,0-.38l-1.43-1.52A.28.28,0,0,0,383.31,331.33Z" transform="translate(-29.13 -52.43)"/><path class="cls-63" d="M381.09,331.48l-2.65,2.71a.26.26,0,0,0,0,.39.26.26,0,0,0,.38,0l2.66-2.71a.28.28,0,0,0-.39-.39Z" transform="translate(-29.13 -52.43)"/><rect class="cls-67" x="343.88" y="236.73" width="8.97" height="1.78"/><rect class="cls-67" x="343.88" y="260.31" width="10.08" height="1.78"/><rect class="cls-67" x="343.88" y="276.08" width="6.87" height="1.78"/><rect class="cls-68" x="346.09" y="240.68" width="14.33" height="1.77"/><rect class="cls-69" x="346.09" y="264.32" width="13.12" height="1.78"/><rect class="cls-70" x="346.09" y="268.12" width="12.87" height="1.77"/><rect class="cls-68" x="346.09" y="272.06" width="6.89" height="1.77"/><rect class="cls-69" x="354.63" y="272.06" width="29.36" height="1.77"/><rect class="cls-69" x="360.48" y="268.12" width="21.35" height="1.77"/><rect class="cls-67" x="383.47" y="268.12" width="6.89" height="1.77"/><rect class="cls-70" x="393.45" y="264.32" width="13.71" height="1.78"/><rect class="cls-68" x="360.61" y="264.32" width="31.12" height="1.78"/><rect class="cls-69" x="361.91" y="240.68" width="8.23" height="1.77"/><rect class="cls-69" x="346.09" y="248.66" width="9.48" height="1.77"/><polygon class="cls-68" points="372.5 250.42 357.11 250.43 357.11 248.66 372.5 248.65 372.5 250.42"/><rect class="cls-70" x="371.61" y="240.68" width="14.73" height="1.77"/><rect class="cls-70" x="346.09" y="244.71" width="16.34" height="1.78"/><rect class="cls-67" x="364.12" y="244.71" width="15.97" height="1.78"/><rect class="cls-68" x="381.68" y="244.71" width="11.16" height="1.78"/><rect class="cls-70" x="346.09" y="252.6" width="19.36" height="1.77"/><rect class="cls-69" x="366.93" y="252.6" width="10.33" height="1.77"/><rect class="cls-68" x="346.09" y="256.34" width="19.36" height="1.78"/><rect class="cls-70" x="366.93" y="256.34" width="17.96" height="1.78"/><rect class="cls-68" x="378.98" y="252.6" width="20.03" height="1.77"/><rect class="cls-68" x="354.57" y="236.73" width="4.63" height="1.78"/><path class="cls-49" d="M450.16,334.41c.34.86-.45,2-1.77,2.49s-2.67.24-3-.62.46-2,1.77-2.49S449.83,333.55,450.16,334.41Z" transform="translate(-29.13 -52.43)"/><path class="cls-56" d="M482.67,306.88s-1.79.34-5.68,4.47c-2.45,2.59-5.46,6.23-8.59,8.86a116.91,116.91,0,0,1-17.82,12,4.55,4.55,0,0,0,1.13,3.13c3.64-.93,25.62-11.55,31.34-17.19S487.44,305.3,482.67,306.88Z" transform="translate(-29.13 -52.43)"/><path class="cls-71" d="M348.67,407.2c0,1.54-13,2.78-29,2.78s-29-1.24-29-2.78,13-2.77,29-2.77S348.67,405.67,348.67,407.2Z" transform="translate(-29.13 -52.43)"/><path class="cls-71" d="M493.51,407.2c0,1.54-13,2.78-29,2.78s-29-1.24-29-2.78,13-2.77,29-2.77S493.51,405.67,493.51,407.2Z" transform="translate(-29.13 -52.43)"/><path class="cls-71" d="M241.71,407.2c0,1.54-13,2.78-29,2.78s-29-1.24-29-2.78,13-2.77,29-2.77S241.71,405.67,241.71,407.2Z" transform="translate(-29.13 -52.43)"/><polygon class="cls-49" points="288.74 347.69 288.74 351.47 292.12 351.47 292.12 347.49 288.74 347.69"/><path class="cls-72" d="M317.87,402.63a2.22,2.22,0,0,0-.89,1.89v2.74h13.57s.25-1.62-1.62-1.62a12.21,12.21,0,0,1-5.73-1.92,2.79,2.79,0,0,0-1.94-1.09Z" transform="translate(-29.13 -52.43)"/><polygon class="cls-49" points="268.63 347.69 268.63 351.47 272.01 351.47 272.01 347.49 268.63 347.69"/><path class="cls-73" d="M297.76,402.63a2.21,2.21,0,0,0-.9,1.89v2.74h13.58s.25-1.62-1.62-1.62a12.29,12.29,0,0,1-5.74-1.92,2.78,2.78,0,0,0-1.94-1.09Z" transform="translate(-29.13 -52.43)"/><path class="cls-48" d="M323.86,334,322.38,401a15.53,15.53,0,0,1-5.87,0c-2-10.23-2.22-32.7-5-47.51s-4.85-17.88-4.85-24.52S323.86,334,323.86,334Z" transform="translate(-29.13 -52.43)"/><path class="cls-55" d="M302.4,400.4a10.31,10.31,0,0,1-5.5-.31l8.15-64.95h14.07Z" transform="translate(-29.13 -52.43)"/><path class="cls-74" d="M316.29,298.66s6,8.1,10.06,11.85c1.83,1.81,9.76-5.72,14.69-11a6.45,6.45,0,0,1,3.1,4.67s-4.27,4.4-10.6,11.23c-5.47,5.9-10.2,5.56-15.84-1.64S316.29,298.66,316.29,298.66Z" transform="translate(-29.13 -52.43)"/><path class="cls-49" d="M316,290.44a19.28,19.28,0,0,0-1.86-9.21c-.7.34-2.44.61-3.65,1s-.87,2.1-.77,2.95-.19,2.81-.59,3c-.4-.91-1-3.92-2.17-2.58s-.61,1.72-.18,3.47-1.71,1.84-1.71,1.84c1.53,4.08,1.09,5.32,1.86,6.16,1.75,1.92,6.37,3,5.78-.45-.81-1.95-1.41-3.33-1.41-3.33C314.47,294.51,315.7,293.08,316,290.44Z" transform="translate(-29.13 -52.43)"/><path class="cls-75" d="M314.09,281.23s2.26-.9,2.29-2.3-3.24-.72-6.11-1.28-7.13-1.17-8.32,2.73a3.78,3.78,0,0,0-1.14,3.87c.74,2.28,2.81,3.7,4.21,6.66,0,0,2.14-.09,1.71-1.84s-1-2.14.18-3.47,1.77,1.67,2.17,2.58c.4-.23.67-2.19.59-3s-.44-2.6.77-2.95S313.39,281.57,314.09,281.23Z" transform="translate(-29.13 -52.43)"/><path class="cls-75" d="M309.37,287.15s.85,4.12,2.65,4.1,3.79-1.49,4.14-.11-1.28,3.17-3,3-2.83-.86-3.19-1.95-1.24-5.29-1.24-5.29Z" transform="translate(-29.13 -52.43)"/><path class="cls-76" d="M306.49,296.37s-5.95,2.41-7.58,5.94,4,10.12,6.07,30.39a11,11,0,0,1-.86,3.95,81.93,81.93,0,0,0,19.95-2s-1.93-18.72-3.83-26.27-2.86-10-7.8-12.26A14.62,14.62,0,0,0,306.49,296.37Z" transform="translate(-29.13 -52.43)"/><path class="cls-49" d="M308.39,342.74a7.7,7.7,0,0,1-.89-1c-1.27-1.72-1.55-3.68-.62-4.37s2.13-.1,3.3,1.05Z" transform="translate(-29.13 -52.43)"/><path class="cls-77" d="M298.91,302.31c-2.27,3.16-4.37,14.44-4.6,19.22s8.93,15.35,10.74,16.73c0,0,2.27-1.17,2.35-3.26,0,0-6.54-10.49-7.06-13.73s4.15-11.06,4.57-14.31C305.22,304.54,301.88,298.18,298.91,302.31Z" transform="translate(-29.13 -52.43)"/><path class="cls-49" d="M344.32,296.29c-1.09,1.51-1.19,3.29-.22,4s2.62,0,3.69-1.5,1.18-3.29.23-4S345.4,294.77,344.32,296.29Z" transform="translate(-29.13 -52.43)"/><path class="cls-55" d="M349,297.74a.63.63,0,0,1-.63.63h-4.3a.63.63,0,0,1-.62-.63V287.52a.62.62,0,0,1,.62-.62h4.3a.63.63,0,0,1,.63.62Z" transform="translate(-29.13 -52.43)"/><rect class="cls-78" x="314.53" y="235.68" width="5.18" height="9.06"/><g class="cls-79"><path class="cls-80" d="M345.45,287.49a.06.06,0,0,0,.06.06H347a.05.05,0,0,0,.06-.06h0a.06.06,0,0,0-.06-.05h-1.48a.06.06,0,0,0-.06.05Z" transform="translate(-29.13 -52.43)"/></g><path class="cls-55" d="M347,297.77a.32.32,0,0,1-.33.32h-.75a.33.33,0,0,1-.33-.32h0a.33.33,0,0,1,.33-.32h.75a.32.32,0,0,1,.33.32Z" transform="translate(-29.13 -52.43)"/><path class="cls-49" d="M345.27,296.08c.33.38.12,1.1-.46,1.62s-1.33.63-1.66.26-.12-1.1.46-1.61S344.94,295.72,345.27,296.08Z" transform="translate(-29.13 -52.43)"/><path class="cls-71" d="M277,423c0,.78-8.09,1.4-18.08,1.4s-18.07-.63-18.07-1.41,8.09-1.4,18.07-1.4S277,422.26,277,423Z" transform="translate(-29.13 -52.43)"/><path class="cls-66" d="M281.83,400.75a22.12,22.12,0,1,1-22.12-22.13A22.12,22.12,0,0,1,281.83,400.75Z" transform="translate(-29.13 -52.43)"/><path class="cls-81" d="M276.86,400.75a22.12,22.12,0,1,1-22.13-22.13A22.12,22.12,0,0,1,276.86,400.75Z" transform="translate(-29.13 -52.43)"/><path class="cls-63" d="M242.7,402.23v-3a3,3,0,0,0,1.63-.43,2.33,2.33,0,0,0,.8-1.21,9.2,9.2,0,0,0,.29-2.76,16.45,16.45,0,0,1,.22-3.35,3.26,3.26,0,0,1,.71-1.43,3.59,3.59,0,0,1,1.44-.89,8.19,8.19,0,0,1,2.75-.35h.66v3a6.36,6.36,0,0,0-1.74.14,1,1,0,0,0-.61.47,2.62,2.62,0,0,0-.19,1.19c0,1,0,2.2-.14,3.48a5.35,5.35,0,0,1-.69,2.24,4.65,4.65,0,0,1-1.51,1.43,4.38,4.38,0,0,1,1.45,1.31,4.82,4.82,0,0,1,.7,2c.05.36.11,1.51.17,3.47a5.58,5.58,0,0,0,.14,1.33,1.14,1.14,0,0,0,.61.59,5.62,5.62,0,0,0,1.81.19v3h-.66a9,9,0,0,1-2.68-.29,3.22,3.22,0,0,1-1.41-.85,3.18,3.18,0,0,1-.79-1.42,12.67,12.67,0,0,1-.24-3,12.22,12.22,0,0,0-.26-3.17,2.37,2.37,0,0,0-.79-1.24A3.16,3.16,0,0,0,242.7,402.23Z" transform="translate(-29.13 -52.43)"/><path class="cls-63" d="M266.77,399.25v3a3.32,3.32,0,0,0-1.64.44,2.33,2.33,0,0,0-.8,1.21,9,9,0,0,0-.29,2.77,16.2,16.2,0,0,1-.22,3.34,3.15,3.15,0,0,1-.7,1.43,3.52,3.52,0,0,1-1.45.89,8.16,8.16,0,0,1-2.74.34h-.66v-3a6.23,6.23,0,0,0,1.73-.14,1.05,1.05,0,0,0,.61-.47,2.44,2.44,0,0,0,.2-1.18c0-1.05.05-2.22.15-3.49a4.86,4.86,0,0,1,.67-2.23,4.63,4.63,0,0,1,1.51-1.42,4.15,4.15,0,0,1-1.43-1.32,4.92,4.92,0,0,1-.72-2c0-.35-.1-1.51-.17-3.46a4.48,4.48,0,0,0-.15-1.34,1,1,0,0,0-.6-.59,5.63,5.63,0,0,0-1.8-.19v-3h.66a9.12,9.12,0,0,1,2.67.3A3.5,3.5,0,0,1,263,390a3.21,3.21,0,0,1,.78,1.43,11.87,11.87,0,0,1,.25,3,13.32,13.32,0,0,0,.25,3.17,2.35,2.35,0,0,0,.8,1.23A3,3,0,0,0,266.77,399.25Z" transform="translate(-29.13 -52.43)"/><path class="cls-71" d="M408,410.69c0,.46-6.91.83-15.44.83s-15.45-.38-15.45-.83,6.92-.83,15.45-.83S408,410.23,408,410.69Z" transform="translate(-29.13 -52.43)"/><path class="cls-82" d="M417.33,389.34a21.51,21.51,0,1,1-21.51-21.52A21.5,21.5,0,0,1,417.33,389.34Z" transform="translate(-29.13 -52.43)"/><path class="cls-65" d="M412.38,389.34a21.51,21.51,0,1,1-21.51-21.52A21.5,21.5,0,0,1,412.38,389.34Z" transform="translate(-29.13 -52.43)"/><path class="cls-83" d="M386.16,393.35v2.57l-10.28-5.23v-2.28l10.28-5.22v2.57l-7.33,3.8Z" transform="translate(-29.13 -52.43)"/><path class="cls-83" d="M387,397.1l6-15.54h2l-6,15.54Z" transform="translate(-29.13 -52.43)"/><path class="cls-83" d="M395.58,385.76v-2.57l10.28,5.22v2.28l-10.28,5.23v-2.57l7.34-3.79Z" transform="translate(-29.13 -52.43)"/><path class="cls-84" d="M533.21,396.67c-1.42-2.21,1.24-4-2-7.5-2-2.22-6.07-1.9-7.78-4.84-3.19-5.43-7.91-4.82-7.91-4.82s-4.74-.61-7.93,4.82c-1.71,2.94-4.08,2.46-6.13,4.7-3.18,3.46-.36,5.72-1.77,8s-4.47,1.46-4.47,5.46h40.6C535.86,398.44,534.62,398.89,533.21,396.67Z" transform="translate(-29.13 -52.43)"/><path class="cls-84" d="M566.47,331.81c-5.61,8.07-10,9.23-14.42,15.67-6.78,10.28-2,13.71-5.23,20.54-3,7-7.07,5.07-9.49,18.84-1.9,13,14.09,13.59,16.26,13.65A191.59,191.59,0,0,1,580,321.27C579.29,320.77,575.6,319.37,566.47,331.81Zm5.12,42.74c.57-6.76,6-6.62,6.8-17.13.68-6.77-1.75-10.49.79-19.31,4.33-13.66,2.33-16.1,1.3-16.55a191.29,191.29,0,0,0-26.32,79c2.31.44,17.6,2.49,19.12-8C575.29,381.3,571.26,381.27,571.59,374.55Z" transform="translate(-29.13 -52.43)"/><path class="cls-64" d="M520.09,348.51a140.44,140.44,0,0,1,19.32,58c1.59-.06,13.31-.51,11.91-10-1.78-10.08-4.76-8.66-7-13.79-2.36-5,1.13-7.51-3.83-15-3.26-4.71-6.45-5.56-10.56-11.47C523.3,347.12,520.59,348.15,520.09,348.51Zm4.9,52.22c1.13,7.65,12.31,6.15,14,5.83a139.58,139.58,0,0,0-19.26-57.83c-.75.33-2.21,2.1.95,12.1,1.87,6.45.09,9.19.59,14.14.56,7.69,4.54,7.58,5,12.54C526.48,392.43,523.53,392.44,525,400.73Z" transform="translate(-29.13 -52.43)"/><polygon class="cls-85" points="556.35 358.46 556.35 357.52 555.21 357.52 548.29 321.68 545.33 321.68 538.27 357.52 537.05 357.52 537.05 358.46 535.16 358.46 535.16 360.33 558.24 360.33 558.24 358.46 556.35 358.46"/><polygon class="cls-63" points="540.66 345.41 552.87 345.41 552 340.92 541.55 340.92 540.66 345.41"/><polygon class="cls-63" points="548.81 324.36 548.29 321.68 545.33 321.68 544.81 324.36 548.81 324.36"/><polygon class="cls-86" points="546.88 321.68 549.92 360.33 558.24 360.33 558.24 358.46 556.35 358.46 556.35 357.52 555.21 357.52 548.29 321.68 546.88 321.68"/><rect class="cls-87" x="55.01" y="294.58" width="3.32" height="54.65"/><rect class="cls-88" x="116.88" y="294.58" width="3.32" height="54.65"/><polygon class="cls-89" points="120.2 329.56 116.88 330.76 116.88 328.56 120.2 328.56 120.2 329.56"/><polygon class="cls-90" points="58.33 329.56 55.01 330.76 55.01 328.56 58.33 328.56 58.33 329.56"/><polygon class="cls-91" points="120.2 311.23 116.88 312.44 116.88 310.23 120.2 310.23 120.2 311.23"/><polygon class="cls-91" points="58.33 311.23 55.01 312.44 55.01 310.23 58.33 310.23 58.33 311.23"/><rect class="cls-63" x="44.13" y="300.77" width="86.96" height="10.16"/><path class="cls-85" d="M92.88,353.19,82,363.35h5.75l10.84-10.16Zm13.22,0L95.25,363.35H101l10.83-10.16Zm-26.44,0-6.4,6v4.15h1.31l10.84-10.16Zm39.65,0-10.84,10.16h5.75l10.84-10.16Zm39.65,0-10.85,10.16h5.75l6.36-6v-4.21Zm-13.22,0L134.9,363.35h5.75l10.84-10.16Zm-13.21,0-10.84,10.16h5.74l10.84-10.16Z" transform="translate(-29.13 -52.43)"/><rect class="cls-63" x="44.13" y="319.01" width="86.96" height="10.15"/><path class="cls-85" d="M92.88,371.43,82,381.59h5.75l10.84-10.16Zm13.22,0L95.25,381.59H101l10.83-10.16Zm-26.44,0-6.4,6v4.16h1.31l10.84-10.16Zm39.65,0-10.84,10.16h5.75l10.84-10.16Zm39.65,0-10.85,10.16h5.75l6.36-6v-4.2Zm-13.22,0L134.9,381.59h5.75l10.84-10.16Zm-13.21,0-10.84,10.16h5.74l10.84-10.16Z" transform="translate(-29.13 -52.43)"/><rect class="cls-92" x="57.42" y="336.82" width="60.03" height="3.03"/><polygon class="cls-85" points="38.93 352.28 38.93 351.31 37.74 351.31 30.54 314.05 27.47 314.05 20.13 351.31 18.86 351.31 18.86 352.28 16.89 352.28 16.89 354.23 40.89 354.23 40.89 352.28 38.93 352.28"/><polygon class="cls-63" points="22.61 338.72 35.31 338.72 34.41 334.05 23.53 334.05 22.61 338.72"/><polygon class="cls-63" points="31.08 316.83 30.54 314.05 27.47 314.05 26.92 316.83 31.08 316.83"/><polygon class="cls-86" points="29.08 314.05 32.24 354.23 40.89 354.23 40.89 352.28 38.93 352.28 38.93 351.31 37.74 351.31 30.54 314.05 29.08 314.05"/><g class="cls-93"><path class="cls-4" d="M450.4,190.06h-1.27a.63.63,0,0,0-.61.64.61.61,0,0,0,.5.6h1.38a.61.61,0,0,0,.3-.08.63.63,0,0,0,.23.08h1.44a.62.62,0,0,0-.09-1.23l-1.26,0a.58.58,0,0,0-.3.08.62.62,0,0,0-.32-.09Zm-6.26.16h0l-.84,0-.42,0a.62.62,0,0,0-.58.66.61.61,0,0,0,.57.58l1.37-.08a.61.61,0,0,0,.56-.64.62.62,0,0,0-.62-.6Zm-6.25.48h-.06l-1.19.13h-.06a.65.65,0,0,0-.55.71.59.59,0,0,0,.56.53c.49-.05,1-.11,1.44-.15a.63.63,0,0,0,.48-.67.62.62,0,0,0-.62-.56Zm-6.22.79h-.08l-.77.13-.47.07a.62.62,0,0,0-.52.71.63.63,0,0,0,.62.53l1.4-.22a.6.6,0,0,0,.44-.69.62.62,0,0,0-.62-.53Zm-6.15,1.1h-.12l-1.24.26a.62.62,0,0,0-.48.73.64.64,0,0,0,.63.5h0l1.41-.3a.61.61,0,0,0,.39-.7.63.63,0,0,0-.61-.5Zm-6.1,1.42-.16,0-.31.08-.91.24a.62.62,0,0,0,.17,1.22h.07c.46-.12.92-.25,1.38-.36a.63.63,0,0,0-.24-1.2Zm-6,1.73a.57.57,0,0,0-.18,0l-.39.12-.81.26a.61.61,0,0,0-.4.78.63.63,0,0,0,.59.43h.13l1.36-.44a.62.62,0,0,0,.3-.73.63.63,0,0,0-.6-.44Zm-5.91,2a.57.57,0,0,0-.22,0l-.21.08-1,.36a.64.64,0,0,0-.36.81.63.63,0,0,0,.59.4l.18,0,1.29-.49a.62.62,0,0,0,.28-.77.61.61,0,0,0-.58-.4Zm-5.81,2.34a.53.53,0,0,0-.25,0l-.86.38-.29.12a.61.61,0,0,0-.32.82.64.64,0,0,0,.58.37l.18,0,1.29-.57a.64.64,0,0,0,.24-.78.62.62,0,0,0-.57-.37ZM396,202.74a.66.66,0,0,0-.27.06c-.26.13-.53.26-.78.4l-.35.17a.64.64,0,0,0-.27.84.62.62,0,0,0,.56.34.47.47,0,0,0,.17,0l1.08-.54.14-.07a.6.6,0,0,0,.28-.82.61.61,0,0,0-.56-.35Zm-5.53,2.91a.64.64,0,0,0-.3.08l-.75.43-.35.2a.62.62,0,0,0-.23.85.64.64,0,0,0,.55.31.6.6,0,0,0,.22,0l1.24-.71A.62.62,0,0,0,391,206a.61.61,0,0,0-.54-.33Zm-5.39,3.21a.68.68,0,0,0-.33.09l-1.06.68a.62.62,0,0,0,.34,1.14.55.55,0,0,0,.28-.07l1.17-.74a.62.62,0,0,0-.4-1.1Zm-5.21,3.47a.69.69,0,0,0-.36.11l-.4.28-.63.44a.62.62,0,0,0,.37,1.13.62.62,0,0,0,.36-.12l0,0,1.07-.76a.62.62,0,0,0,.07-.79.65.65,0,0,0-.52-.26Zm-5,3.72a.58.58,0,0,0-.38.13l-1,.77a.61.61,0,0,0-.1.87.63.63,0,0,0,.82.15l1.12-.88a.61.61,0,0,0,0-.8.6.6,0,0,0-.48-.24ZM370,220a.62.62,0,0,0-.4.15c-.22.18-.43.37-.63.55l-.31.28a.61.61,0,0,0,0,.88.57.57,0,0,0,.46.21.66.66,0,0,0,.35-.11l1-.91A.61.61,0,0,0,370,220Zm-4.62,4.21a.64.64,0,0,0-.44.18l-.9.87a.64.64,0,0,0,0,.89.63.63,0,0,0,.45.18.69.69,0,0,0,.36-.11l1-1a.62.62,0,0,0,0-.84.62.62,0,0,0-.45-.2Zm-4.4,4.45a.65.65,0,0,0-.46.2c-.29.3-.57.61-.86.92a.63.63,0,0,0,0,.88.61.61,0,0,0,.42.16.62.62,0,0,0,.4-.15l1-1a.61.61,0,0,0-.08-.81.63.63,0,0,0-.42-.17Zm-4.18,4.66a.63.63,0,0,0-.47.22l-.15.17-.67.8a.63.63,0,0,0,.48,1,.6.6,0,0,0,.46-.21l.89-1a.63.63,0,0,0-.13-.79.64.64,0,0,0-.41-.16Zm216.43,81.29a.61.61,0,0,0-.61.5c0,.47,0,.94,0,1.41a.64.64,0,0,0,.61.59h0a.63.63,0,0,0,.62-.61c0-.28,0-.56,0-.85v-.41a.63.63,0,0,0-.62-.63Zm-.06-6.25h0a.63.63,0,0,0-.6.53c0,.48,0,.94.05,1.43a.62.62,0,0,0,.62.53h0a.62.62,0,0,0,.6-.64c0-.28,0-.56,0-.85l0-.41a.61.61,0,0,0-.61-.59Zm-.4-6.26h-.06a.6.6,0,0,0-.55.55c0,.48.08.95.11,1.43a.62.62,0,0,0,.62.51h0a.63.63,0,0,0,.58-.67l-.09-1,0-.26a.63.63,0,0,0-.63-.57Zm-.69-6.22H572a.62.62,0,0,0-.54.6c.07.48.14,1,.19,1.43a.63.63,0,0,0,.61.45h.08a.62.62,0,0,0,.53-.7c0-.42-.11-.83-.17-1.25a.62.62,0,0,0-.61-.54Zm-1-6.18-.12,0a.62.62,0,0,0-.5.63c.09.47.17.93.26,1.4a.62.62,0,0,0,.59.43h.12a.61.61,0,0,0,.49-.72c-.07-.41-.15-.83-.23-1.24a.61.61,0,0,0-.61-.51Zm-1.32-6.11-.15,0a.63.63,0,0,0-.47.69l.33,1.37a.61.61,0,0,0,.58.38h.14a.63.63,0,0,0,.46-.75l0-.17c-.08-.35-.16-.7-.25-1a.62.62,0,0,0-.6-.48Zm-1.64-6.05a.57.57,0,0,0-.18,0,.62.62,0,0,0-.43.74l.39,1.34a.63.63,0,0,0,.56.35l.17,0a.64.64,0,0,0,.43-.78l-.12-.41c-.07-.26-.14-.53-.23-.8a.62.62,0,0,0-.59-.45Zm-2-5.94a.76.76,0,0,0-.21,0,.63.63,0,0,0-.4.73c.16.45.32.9.47,1.34a.62.62,0,0,0,.55.33.51.51,0,0,0,.2,0,.62.62,0,0,0,.38-.79l-.14-.44-.26-.75a.64.64,0,0,0-.59-.41Zm-2.25-5.84a.52.52,0,0,0-.24,0,.62.62,0,0,0-.36.75c.17.42.35.84.51,1.26a.64.64,0,0,0,.56.34.46.46,0,0,0,.23-.05.6.6,0,0,0,.34-.81c-.15-.39-.31-.76-.47-1.16a.62.62,0,0,0-.57-.38Zm-2.57-5.71a.66.66,0,0,0-.27.06.6.6,0,0,0-.32.72c.17.36.33.71.5,1.06a1.3,1.3,0,0,0,.08.17.62.62,0,0,0,.56.36.66.66,0,0,0,.27-.06.63.63,0,0,0,.3-.83l-.35-.72-.2-.42a.62.62,0,0,0-.57-.34Zm-2.83-5.59a.61.61,0,0,0-.3.08.62.62,0,0,0-.29.75c.23.42.44.82.66,1.24a.63.63,0,0,0,.52.28.66.66,0,0,0,.3-.07.61.61,0,0,0,.25-.84c-.19-.38-.39-.75-.6-1.12a.62.62,0,0,0-.54-.32Zm-3.12-5.42a.68.68,0,0,0-.33.09.63.63,0,0,0-.25.77l.75,1.23a.62.62,0,0,0,.48.22.49.49,0,0,0,.31-.09.61.61,0,0,0,.22-.85l-.17-.29-.48-.79a.62.62,0,0,0-.53-.29ZM552,243.8a.66.66,0,0,0-.35.11.62.62,0,0,0-.2.81c.26.39.53.78.79,1.18a.62.62,0,0,0,.46.19.61.61,0,0,0,.34-.1.63.63,0,0,0,.17-.87l-.23-.36c-.16-.23-.31-.46-.47-.68a.61.61,0,0,0-.51-.28Zm-3.66-5.08a.67.67,0,0,0-.38.13.64.64,0,0,0-.15.83q.44.56.84,1.11a.62.62,0,0,0,.44.18.63.63,0,0,0,.37-.12.62.62,0,0,0,.13-.87l-.25-.35-.5-.66a.64.64,0,0,0-.5-.25Zm-3.9-4.88a.68.68,0,0,0-.41.14.63.63,0,0,0-.13.81l.88,1.05a.63.63,0,0,0,.46.2.57.57,0,0,0,.39-.14.62.62,0,0,0,.08-.88c-.15-.2-.32-.39-.49-.59l-.31-.37a.6.6,0,0,0-.47-.22Zm-4.16-4.69a.63.63,0,0,0-.43.17.62.62,0,0,0-.09.8l.94,1a.6.6,0,0,0,.43.17.6.6,0,0,0,.42-.16.62.62,0,0,0,0-.88c-.19-.21-.38-.42-.58-.62l-.28-.3a.64.64,0,0,0-.45-.2Zm-4.38-4.47a.68.68,0,0,0-.46.19.65.65,0,0,0,0,.83c.34.32.67.65,1,1a.7.7,0,0,0,.38.13.62.62,0,0,0,.44-.18.64.64,0,0,0,0-.89l-.9-.88a.61.61,0,0,0-.43-.18Zm-4.61-4.24a.61.61,0,0,0-.47.21.62.62,0,0,0,0,.84l1,.92a.61.61,0,0,0,.81-.1.63.63,0,0,0,0-.88l-.3-.27-.64-.57a.65.65,0,0,0-.41-.15Zm-4.81-4a.6.6,0,0,0-.49.24.64.64,0,0,0,.06.85c.37.29.74.57,1.1.87a.62.62,0,0,0,.79-.15.62.62,0,0,0-.09-.88l-.28-.22-.71-.57a.62.62,0,0,0-.38-.14Zm-5-3.75a.63.63,0,0,0-.42,1.08l1.15.83a.62.62,0,0,0,.29.07.63.63,0,0,0,.51-.26.61.61,0,0,0-.14-.86l-1-.74a.65.65,0,0,0-.37-.12Zm-5.19-3.49a.67.67,0,0,0-.53.29.62.62,0,0,0,.12.8L517,211a.63.63,0,0,0,.85-.19.62.62,0,0,0-.18-.86l-.67-.43-.39-.25a.7.7,0,0,0-.34-.1ZM510.88,206a.65.65,0,0,0-.55.32.61.61,0,0,0,.17.79l1.21.7a.61.61,0,0,0,.25.06.64.64,0,0,0,.54-.32.63.63,0,0,0-.22-.85l-1.1-.62a.64.64,0,0,0-.3-.08ZM505.35,203a.62.62,0,0,0-.33,1.15l1.25.63a.72.72,0,0,0,.19,0,.64.64,0,0,0,.56-.34.62.62,0,0,0-.27-.84l-1.11-.57a.62.62,0,0,0-.29-.07Zm-5.66-2.66a.62.62,0,0,0-.32,1.16l1.29.57a.47.47,0,0,0,.17,0,.62.62,0,0,0,.56-.37.63.63,0,0,0-.31-.83l-.38-.17-.76-.34a.7.7,0,0,0-.25,0Zm-5.8-2.37a.61.61,0,0,0-.58.4.63.63,0,0,0,.32.79l1.3.5h.13a.63.63,0,0,0,.58-.4.63.63,0,0,0-.36-.8l-.42-.17-.75-.29a.6.6,0,0,0-.22,0ZM488,195.93a.6.6,0,0,0-.59.43.62.62,0,0,0,.34.76l1.33.43h.11a.62.62,0,0,0,.2-1.21l-1.2-.4-.19,0Zm-6-1.76a.64.64,0,0,0-.61.47.61.61,0,0,0,.35.72l1.25.34h0a.51.51,0,0,0,.17,0,.62.62,0,0,0,.59-.46.63.63,0,0,0-.44-.77l-.72-.19-.48-.13-.16,0Zm-6.09-1.44a.63.63,0,0,0-.62.5.61.61,0,0,0,.38.69l1.39.3h.07a.64.64,0,0,0,.61-.49.63.63,0,0,0-.48-.74l-.92-.2-.31-.06Zm-6.17-1.15a.62.62,0,0,0-.61.53.61.61,0,0,0,.43.69l1.4.23h0a.62.62,0,0,0,.1-1.24l-1.24-.2Zm-6.21-.82a.62.62,0,0,0-.61.56.63.63,0,0,0,.44.67l1.45.16a.61.61,0,0,0,.59-.54.62.62,0,0,0-.54-.7l-1.26-.14Zm-6.24-.5a.61.61,0,0,0-.61.58.62.62,0,0,0,.5.65l1.43.09a.62.62,0,0,0,.56-.58.61.61,0,0,0-.58-.66l-1.26-.08Z" transform="translate(-29.13 -52.43)"/></g><path class="cls-56" d="M162.82,289.42s12.7-20.63,17.86-30.08a3.4,3.4,0,0,1,3.43,2.15s-10.37,24.27-17.65,33.14S162.82,289.42,162.82,289.42Z" transform="translate(-29.13 -52.43)"/><path class="cls-94" d="M186,257.26c.62-1.29.36-2.69-.57-3.14s-2.19.23-2.8,1.51-.37,2.69.57,3.14S185.35,258.54,186,257.26Z" transform="translate(-29.13 -52.43)"/><path class="cls-95" d="M212.77,241.3l-3-3.17-5.24,2.41h-24.1a3.32,3.32,0,0,0-3.31,3.31v15.42l-2.46,1.13,3.29,3.44a3,3,0,0,0,.25.25l0,0h0a3.31,3.31,0,0,0,2.19.85H210.7a3.32,3.32,0,0,0,3.31-3.31V243.85A3.27,3.27,0,0,0,212.77,241.3Z" transform="translate(-29.13 -52.43)"/><rect class="cls-96" x="144.72" y="184.67" width="36.86" height="24.44" rx="3.31"/><path class="cls-63" d="M178.84,240.41a1.65,1.65,0,0,0-1.66,1.65v14.5a1.66,1.66,0,0,0,1.66,1.66h26.92a1.67,1.67,0,0,0,1.66-1.66v-14.5a1.66,1.66,0,0,0-1.66-1.65Z" transform="translate(-29.13 -52.43)"/><path class="cls-95" d="M181.91,243.94h4.53a1.52,1.52,0,0,1,1.06.4,1.31,1.31,0,0,1,.46,1V248a2.29,2.29,0,0,1-.91,1.9,3.29,3.29,0,0,1-2.12.68h-1v3.69h-2.05Zm2.05,1.91v2.83h1c.65,0,1-.22,1-.67v-2.16Z" transform="translate(-29.13 -52.43)"/><path class="cls-95" d="M191.43,250.06v4.22h-2.05V243.94h2.05v4.21h1.94v-4.21h2.06v10.34h-2.06v-4.22Z" transform="translate(-29.13 -52.43)"/><path class="cls-95" d="M197.47,243.94H202a1.52,1.52,0,0,1,1.06.4,1.34,1.34,0,0,1,.45,1V248a2.31,2.31,0,0,1-.9,1.9,3.33,3.33,0,0,1-2.13.68h-1v3.69h-2.05Zm2.05,1.91v2.83h1c.65,0,1-.22,1-.67v-2.16Z" transform="translate(-29.13 -52.43)"/><path class="cls-71" d="M117,408.2c0,1.66,14,3,31.16,3s31.17-1.33,31.17-3-14-3-31.17-3S117,406.56,117,408.2Z" transform="translate(-29.13 -52.43)"/><polygon class="cls-49" points="131.33 349.33 131.33 352.94 134.57 352.94 134.57 349.13 131.33 349.33"/><path class="cls-97" d="M160.47,404.15a2.11,2.11,0,0,0-.86,1.81v2.62h13s.24-1.55-1.55-1.55a11.89,11.89,0,0,1-5.49-1.83,2.66,2.66,0,0,0-1.86-1.05Z" transform="translate(-29.13 -52.43)"/><polygon class="cls-49" points="100.29 346.62 98.59 349.8 101.45 351.33 103.24 347.97 100.29 346.62"/><path class="cls-98" d="M128.3,401.16a2.12,2.12,0,0,0-1.61,1.19c-.61,1.13-1.23,2.31-1.23,2.31l8.82,4.71,2,0s.41-2-.76-2c-2.82,0-2.95-2.06-3.19-2.86a2.65,2.65,0,0,0-1.14-1.8Z" transform="translate(-29.13 -52.43)"/><path class="cls-48" d="M150.92,335c-4.85,6-3.49,19.5-7.27,28.78s-15.3,35.4-15.3,35.4a5.67,5.67,0,0,0,4.4,2.19s23.61-35.7,27.39-48.07,1.9-19.07,1.9-19.07S152.27,333.37,150.92,335Z" transform="translate(-29.13 -52.43)"/><path class="cls-55" d="M152.35,332.14c-4,11,4.53,22.75,5.9,39.93s1.37,30.76,1.37,30.76,3,.92,5,0c0,0,4.8-56.44,4.8-66.46S152.92,330.57,152.35,332.14Z" transform="translate(-29.13 -52.43)"/><path class="cls-49" d="M166.56,287.62a18.81,18.81,0,0,0-2.23-8.93,33.76,33.76,0,0,1-3.52,1.1c-1.17.4-.76,2.1-.63,2.92s-.05,2.76-.45,3c-.42-.87-1.14-3.79-2.23-2.43s-.52,1.72,0,3.41-1.59,1.88-1.59,1.88a29,29,0,0,0,2.51,5.05s5.5,2.6,4.77-.77a3.87,3.87,0,0,0-1.08-2.24C165.29,291.66,166.44,290.21,166.56,287.62Z" transform="translate(-29.13 -52.43)"/><path class="cls-60" d="M157.76,292.56s-6.55,1.32-6.55,11.74-.43,31-.43,31,11.95,2.75,19,.87c-2.16-23.41,3.47-26,.7-34.66C168.75,296.15,164.55,291.85,157.76,292.56Z" transform="translate(-29.13 -52.43)"/><path class="cls-60" d="M161.57,295.23c3.75-2.35,21.62-22.06,28.14-30.62a3.41,3.41,0,0,1,3.08,2.64s-17.61,26-26.14,33.68S154.55,299.64,161.57,295.23Z" transform="translate(-29.13 -52.43)"/><path class="cls-49" d="M195.26,263.34c.81-1.18.77-2.6-.09-3.18s-2.19-.1-3,1.07-.76,2.6.09,3.18S194.46,264.52,195.26,263.34Z" transform="translate(-29.13 -52.43)"/><path class="cls-75" d="M141.24,309.9c-.23-6.9-.35-13.27,6-19.79,4.54-4.7,3.72-15.3,13.63-13.82a4.41,4.41,0,0,1,3.49,2.4c-1,6.42-6.16,6.12-6.16,14.52,0,12.82-4.48,9.43-5.53,16.48s2.51,14-1,18.49a7.22,7.22,0,0,1-4.5,2.87,19.16,19.16,0,0,1-.93,2c-5.91,10.86-12.58,4-9.72-1.15s.75-3.65-.95-7.62C131.83,315.74,136.22,311.47,141.24,309.9Z" transform="translate(-29.13 -52.43)"/><g id="cloud-2" data-name="cloud"><path class="cls-99" d="M133.49,81.5A13.84,13.84,0,0,0,121,85.37c-.26-.07-.52-.14-.78-.19A9.6,9.6,0,0,0,109.17,93a10.32,10.32,0,0,0-.18,2.2c-3.67-.46-7.17,2.26-8,6.29-.82,4.19,1.61,8.19,5.43,8.93a6.79,6.79,0,0,0,5.91-1.75,7.59,7.59,0,0,0,2.68,1.12,7.94,7.94,0,0,0,7.44-2.69,13.65,13.65,0,0,0,5.53,2.44,14.29,14.29,0,0,0,5.47-28Z" transform="translate(-29.13 -52.43)"/><path class="cls-3" d="M139.49,85.87a.35.35,0,0,0-.57.4,12.41,12.41,0,0,1,1.35,8.48,12.15,12.15,0,0,1-14.13,9.76,11.86,11.86,0,0,1-4.5-1.92.35.35,0,0,0-.46,0,6.79,6.79,0,0,1-6.19,2.08,6.34,6.34,0,0,1-2.09-.82.35.35,0,0,0-.41,0,5.83,5.83,0,0,1-4.88,1.33,6.11,6.11,0,0,1-4.75-5.41.16.16,0,0,0-.3,0c-1.37,4.15.92,8.53,4.83,9.29a6.34,6.34,0,0,0,5.32-1.46.36.36,0,0,1,.42,0,6.92,6.92,0,0,0,2.29.89,7.37,7.37,0,0,0,6.74-2.28.35.35,0,0,1,.46,0,12.5,12.5,0,0,0,4.91,2.1,13.18,13.18,0,0,0,15.35-10.6A13.43,13.43,0,0,0,139.49,85.87Z" transform="translate(-29.13 -52.43)"/></g><g id="colored_bubbles" data-name="colored bubbles"><circle class="cls-100" cx="27.98" cy="163.84" r="4.83"/><circle class="cls-100" cx="561.05" cy="72.97" r="4.83"/><circle class="cls-101" cx="351.12" cy="24.03" r="3.41"/><circle class="cls-101" cx="113.82" cy="95.12" r="2.84"/><circle class="cls-102" cx="2.56" cy="247.86" r="2.56"/><circle class="cls-102" cx="262.74" cy="29.63" r="2.8"/><circle class="cls-103" cx="305.49" cy="2.56" r="2.56"/><circle class="cls-103" cx="354.62" cy="73.99" r="2.56"/></g></g></g></svg>
